<svg xmlns="http://www.w3.org/2000/svg" viewBox="0 0 347.42 478.06">
	<g id="near-term">
		<g id="minor">
			<g data-name="item" data-cursor="❓" data-cursor-attach="#po">
				<path d="M241.46,177.83c.15,8.45,14.93,14.97-87.18,18.9-48.6,1.87-93.17,5.14-91.79-8.94,1.48-15.11-9.78-14.36,90.25-19.3,48.59-2.4,88.43-7.52,88.72,9.34Z"/>
				<g>
					<path d="M85.76,180.82c0,.07-.05.13-.2.14-.94.05-.94.48-.88,1.6l.19,3.56c.16,2.94-1.19,4.13-2.66,4.21-2.24.12-3.36-1.21-3.48-3.51l-.26-4.69c-.04-.69-.68-.75-1.05-.73-.1,0-.15-.05-.15-.12,0-.08.05-.17.14-.17l2.99-.16c.08,0,.14.08.14.15,0,.07-.03.14-.11.14-.54.03-1,.13-.96.84l.22,4.05c.14,2.64,1.17,3.62,2.77,3.53,1.1-.06,2.09-1.1,1.96-3.48l-.19-3.54c-.07-1.22-.16-1.6-1.09-1.55-.12,0-.17-.06-.18-.13,0-.08.06-.16.18-.17l2.41-.13c.12,0,.21.08.21.15Z"/>
					<path d="M91.99,186.23c.09,1.74-.68,3.65-2.5,3.75-.39.02-.78-.11-1.08-.22-.09-.03-.15-.05-.2-.05-.08,0-.1.07-.09.26l.09,1.63.03.63c.04.69.62.75.95.73.09,0,.14.06.14.12,0,.08-.04.17-.12.17l-2.7.15c-.08,0-.12-.08-.13-.15,0-.07.03-.14.1-.14.49-.03.9-.12.86-.83l-.03-.63-.34-6.29c-.04-.81-.11-1.04-.92-.99-.08,0-.14-.08-.14-.15,0-.07.03-.13.11-.13.5-.03.88-.25,1.16-.42.17-.1.3-.18.4-.18.11,0,.18.11.2.48l.02.28c0,.11.04.14.1.13.08,0,.2-.11.37-.25.36-.29.9-.73,1.56-.76,1.31-.07,2.07,1.33,2.15,2.86ZM91.1,186.66c-.07-1.32-.73-2.56-2.02-2.49-.54.03-1.17.46-1.21,1.31l.16,2.92c.06,1.04,1.03,1.21,1.36,1.19,1.2-.06,1.79-1.54,1.71-2.93Z"/>
					<path d="M98.96,188.97c0,.07-.03.13-.11.13-.5.03-.88.2-1.17.33-.17.08-.3.14-.41.14-.11,0-.17-.06-.19-.34l-.02-.37c-.01-.1-.04-.14-.08-.14-.03,0-.11.07-.23.16-.32.26-.94.76-1.58.8-1.48.08-2.24-1.33-2.32-2.83-.1-1.76.95-3.68,2.58-3.77.37-.02.65.1.88.19.15.06.28.12.39.11.04,0,.06-.03.06-.07l-.09-1.74c-.04-.81-.11-1.04-.92-.99-.08,0-.14-.08-.14-.15,0-.06.03-.12.11-.13.5-.03.88-.31,1.16-.51.17-.12.3-.22.4-.22.11,0,.18.11.2.48l.43,7.85c.04.81.11.97.92.93.08,0,.13.07.14.15ZM96.99,187.65l-.14-2.55c-.05-1-.85-1.69-1.54-1.66-1.09.06-1.66,1.44-1.59,2.79s.71,2.73,2.03,2.66c.49-.03,1.28-.4,1.23-1.24Z"/>
					<path d="M104.76,187.99c-.11.4-.58,1.19-1.23,1.23-.57.03-.76-.23-.78-.68-.01-.22-.01-.23-.13-.11-.67.65-1.34.92-1.87.95-.83.05-1.4-.59-1.44-1.35-.07-1.22,1.98-2,2.83-2.44.4-.21.43-.32.41-.57l-.02-.36c-.03-.54-.38-1.61-1.35-1.56-.6.03-.71.52-.77.99-.05.45-.23.68-.54.7-.4.02-.53-.45-.41-.71.31-.69,1.18-1.31,2.2-1.36.89-.05,1.71.41,1.79,1.84l.16,2.95c.04.71.14.91.43.89.19-.01.42-.25.52-.46.03-.07.08-.13.15-.11.06.01.09.07.07.16ZM102.68,187.24l-.07-1.26c0-.1-.03-.18-.25-.09-.58.23-2.05.86-1.99,1.88.04.72.51.98.96.95.75-.04,1.39-.71,1.35-1.48Z"/>
					<path d="M106.62,182.94c-.17,0-.26.05-.25.35l.21,3.78c.05.86.26,1.29.78,1.26.44-.02.68-.6.81-.94.02-.04.06-.07.1-.08.08,0,.16.07.13.15-.09.46-.47,1.52-1.28,1.57-.76.04-1.35-.38-1.41-1.5l-.23-4.19c-.02-.33-.12-.33-.47-.31l-.4.02c-.19.01-.25-.07-.25-.16,0-.1.03-.19.24-.2,1.43-.08,1.36-1.19,1.32-1.82-.02-.29.07-.31.18-.32.08,0,.12.09.13.27l.06,1.15c.02.37.09.62.44.6l1.25-.07c.23-.01.23.11.24.18,0,.08-.08.17-.31.18l-1.3.07Z"/>
					<path d="M113.85,185.76c.1,1.76-1.11,2.99-2.27,3.05-1.71.09-2.54-1.34-2.63-2.9-.09-1.74.82-3.64,2.3-3.72,1.56-.08,2.16,1.35,2.19,2.08.03.52-.08.54-1.28.61l-.28.02-2,.11c-.22.01-.21.11-.21.23.1,1.86,1.24,2.77,2.26,2.71.79-.04,1.4-.71,1.61-2.17,0-.07.1-.1.15-.1.06-.01.12.02.14.08ZM109.72,184.45c0,.08.05.15.24.13l2.11-.11c.3-.02.37-.12.35-.44-.03-.52-.54-1.47-1.36-1.43-.78.04-1.38,1.14-1.34,1.84Z"/>
					<path d="M118.79,186.9c.06,1.06-1.05,1.58-1.85,1.62-.9.05-1.81-.26-1.9-.54-.16-.48-.43-1.65-.46-2.15,0-.08.06-.13.14-.14.08,0,.14.05.17.12.6,1.73,1.47,2.44,2.08,2.41.59-.03.93-.48.9-.98-.04-.7-.66-1.14-1.54-1.74-1.33-.91-1.7-1.35-1.73-2.07-.05-.94.97-1.47,1.91-1.52.78-.04,1.54.24,1.61.49l.27,1.52c0,.06-.02.11-.08.13-.02,0-.04.01-.05.01-.07,0-.14-.05-.16-.12-.52-1.37-1.3-1.75-1.71-1.73-.6.03-.9.47-.87,1.04.02.44.46.92,1.42,1.55.92.61,1.82,1.26,1.86,2.09Z"/>
					<path d="M124.68,181.96c-.17,0-.26.05-.25.35l.21,3.78c.05.86.25,1.29.78,1.26.44-.02.68-.6.81-.94.02-.04.06-.07.1-.08.08,0,.16.07.13.15-.09.46-.47,1.52-1.28,1.57-.76.04-1.35-.38-1.41-1.5l-.23-4.19c-.02-.33-.12-.33-.47-.31l-.4.02c-.19.01-.25-.07-.25-.16,0-.1.03-.19.24-.2,1.43-.08,1.36-1.19,1.33-1.82-.02-.29.07-.31.18-.32.08,0,.12.09.13.27l.06,1.15c.02.37.09.62.44.6l1.25-.07c.23-.01.23.11.24.18,0,.08-.08.17-.31.18l-1.3.07Z"/>
					<path d="M132.52,184.17c.09,1.7-.8,3.52-2.56,3.62-1.9.1-2.87-1.42-2.96-3.03-.09-1.69.79-3.48,2.57-3.58,1.91-.1,2.86,1.4,2.95,3ZM131.54,184.76c-.09-1.59-.89-3.3-2.11-3.23-1.09.06-1.53,1.34-1.45,2.69.09,1.58.87,3.27,2.1,3.2,1.11-.06,1.54-1.32,1.46-2.66Z"/>
					<path d="M141,185.69c.06,1.06-1.05,1.58-1.85,1.62-.9.05-1.8-.26-1.9-.54-.16-.48-.43-1.65-.46-2.15,0-.08.06-.13.14-.14.08,0,.15.05.17.12.59,1.73,1.47,2.44,2.08,2.41.59-.03.92-.48.9-.98-.04-.7-.66-1.14-1.54-1.74-1.33-.91-1.7-1.35-1.74-2.07-.05-.94.97-1.47,1.91-1.52.78-.04,1.54.24,1.61.49l.27,1.52c0,.06-.02.11-.08.13-.02,0-.04.01-.05.01-.07,0-.14-.05-.16-.12-.52-1.37-1.3-1.75-1.71-1.73-.6.03-.9.47-.87,1.04.02.44.46.92,1.42,1.55.91.61,1.82,1.26,1.86,2.09Z"/>
					<path d="M147.3,183.22c.09,1.74-.68,3.65-2.5,3.75-.39.02-.77-.11-1.08-.22-.09-.03-.15-.05-.2-.05-.08,0-.1.07-.09.26l.09,1.63.03.63c.04.69.62.75.95.73.09,0,.14.06.14.12,0,.08-.04.17-.12.17l-2.7.15c-.08,0-.12-.08-.13-.15,0-.07.03-.14.1-.14.49-.03.9-.12.86-.83l-.03-.63-.34-6.29c-.04-.81-.11-1.04-.92-.99-.08,0-.14-.08-.14-.15,0-.07.03-.13.11-.13.5-.03.88-.25,1.16-.42.17-.1.3-.18.4-.18.11,0,.18.11.2.48l.02.28c0,.11.04.14.1.13.08,0,.2-.11.38-.25.36-.29.9-.73,1.56-.76,1.31-.07,2.07,1.33,2.15,2.86ZM146.41,183.66c-.07-1.32-.73-2.56-2.02-2.49-.54.03-1.17.46-1.21,1.31l.16,2.92c.06,1.04,1.03,1.21,1.36,1.19,1.2-.07,1.79-1.54,1.71-2.93Z"/>
					<path d="M153.56,185.34c-.11.4-.58,1.19-1.23,1.23-.57.03-.76-.23-.78-.68-.01-.22-.01-.23-.13-.11-.67.65-1.34.92-1.87.95-.83.04-1.4-.59-1.44-1.35-.07-1.22,1.98-2,2.83-2.44.4-.21.43-.32.41-.57l-.02-.36c-.03-.54-.38-1.61-1.35-1.56-.6.03-.71.52-.77.99-.05.45-.23.68-.54.7-.4.02-.53-.45-.41-.71.31-.69,1.18-1.31,2.19-1.36.89-.05,1.71.41,1.79,1.84l.16,2.95c.04.71.14.91.43.9.19-.01.42-.25.52-.46.03-.07.08-.13.15-.11.06.01.09.07.07.16ZM151.47,184.59l-.07-1.26c0-.1-.03-.18-.25-.09-.58.23-2.05.86-1.99,1.88.04.72.51.98.96.95.75-.04,1.39-.71,1.35-1.48Z"/>
					<path d="M158.88,183.32c.09,1.75-1.11,2.96-2.29,3.03-1.69.09-2.57-1.28-2.65-2.8-.1-1.76.88-3.72,2.9-3.83.89-.05,1.34.32,1.37.72.01.25-.19.6-.47.61-.12,0-.25-.06-.36-.17-.32-.32-.72-.62-1.2-.59-.97.05-1.5,1.4-1.42,2.7.07,1.31.74,2.58,2.14,2.5.75-.04,1.47-.69,1.69-2.17.01-.07.13-.1.17-.1.06,0,.12.04.13.1Z"/>
					<path d="M162.42,185.72c0,.08-.04.17-.12.17l-2.7.15c-.08,0-.12-.08-.13-.15,0-.07.03-.14.1-.14.49-.03.9-.12.86-.83l-.19-3.53c-.04-.81-.11-1.04-.92-.99-.08,0-.14-.08-.14-.15,0-.06.03-.13.11-.13.5-.03.88-.26,1.16-.42.17-.1.3-.18.4-.18.11,0,.18.11.2.48l.27,4.88c.04.69.62.75.96.73.09,0,.14.06.14.12ZM159.59,177.79c-.02-.35.24-.7.6-.72.36-.02.66.3.67.65.02.35-.23.7-.6.72-.37.02-.65-.3-.67-.65Z"/>
					<path d="M169.21,185.35c0,.08-.04.17-.12.17l-2.7.15c-.08,0-.12-.08-.13-.15,0-.07.03-.14.1-.14.49-.03.9-.12.86-.83l-.12-2.13c-.1-1.79-.36-2.51-1.11-2.46-.18,0-1.72.32-1.6,2.51l.12,2.23c.04.69.62.75.96.73.09,0,.14.06.14.12,0,.08-.04.17-.12.17l-2.7.15c-.08,0-.12-.08-.13-.15,0-.07.03-.14.1-.14.49-.03.9-.12.86-.83l-.19-3.53c-.04-.81-.11-1.04-.92-.99-.08,0-.14-.08-.14-.15,0-.07.03-.13.11-.13.5-.03.88-.26,1.16-.42.17-.1.3-.18.4-.18.11,0,.18.11.2.48l.04.71c0,.08,0,.13.06.13.05,0,.14-.13.3-.3.38-.41,1.04-1.11,1.7-1.15,1.42-.08,1.56,1.64,1.62,2.76l.14,2.54c.04.69.62.75.96.73.09,0,.14.06.14.13Z"/>
					<path d="M172.32,184.73c1.3-.07,2.86-.09,2.94,1.4.07,1.28-1.22,2.99-3.45,3.11-1.08.06-2.41-.38-2.48-1.63-.05-.86.96-1.53,1.6-1.83.07-.03.1-.06.1-.09,0-.05-.1-.06-.23-.07-.67-.06-1.12-.38-1.15-.95-.02-.31.38-.87,1.11-1.18.1-.05.16-.07.16-.1,0-.02-.04-.05-.12-.08-.82-.33-1.24-1.13-1.29-1.96-.06-1.16.81-2.42,2.08-2.49.4-.02.79.04,1.15.21.09.04.16.06.21.06.06,0,.11-.04.14-.09.22-.38.5-.75.97-.78.32-.02.6.11.62.45.02.32-.19.42-.42.43-.18,0-.35-.03-.48-.06-.06-.01-.11-.02-.14-.03-.03,0-.05,0-.07,0-.16,0-.31.11-.3.27,0,.08.04.16.13.26.31.39.48.87.51,1.36.06,1.15-.66,2.43-1.96,2.5-.96.05-1.43.56-1.42.74.03.57.85.59,1.79.53ZM174.69,186.58c-.05-.97-1.14-.95-2.21-.93h-.51c-.94.02-1.68,1.08-1.65,1.74.05.91.93,1.36,1.89,1.31,1.37-.07,2.52-1.25,2.47-2.12ZM171.93,183.15c.89-.05,1.16-.85,1.11-1.77-.06-1.09-.53-2.26-1.53-2.21-.87.05-1.19.88-1.14,1.79.06,1.13.54,2.24,1.55,2.19Z"/>
					<path d="M184.27,183.67c-.11.4-.58,1.19-1.23,1.23-.57.03-.76-.23-.78-.68-.01-.22-.01-.23-.13-.11-.67.65-1.34.92-1.87.95-.83.05-1.4-.59-1.44-1.35-.07-1.22,1.98-2,2.83-2.44.4-.21.43-.32.41-.57l-.02-.36c-.03-.54-.38-1.61-1.35-1.56-.6.03-.71.52-.77.99-.05.45-.23.68-.54.7-.4.02-.53-.45-.41-.71.31-.69,1.18-1.31,2.2-1.36.89-.05,1.71.41,1.79,1.84l.16,2.95c.04.71.14.91.43.89.19-.01.42-.25.52-.46.03-.07.08-.13.15-.11.06.01.09.07.07.16ZM182.18,182.92l-.07-1.26c0-.1-.03-.18-.25-.09-.58.23-2.05.86-1.99,1.88.04.72.51.98.96.95.75-.04,1.39-.71,1.35-1.48Z"/>
					<path d="M191.03,184.17c0,.08-.04.17-.12.17l-2.7.15c-.08,0-.12-.08-.13-.15,0-.07.03-.14.1-.14.49-.03.9-.12.86-.83l-.12-2.13c-.1-1.79-.36-2.51-1.11-2.46-.18,0-1.72.32-1.6,2.51l.12,2.23c.04.69.62.75.96.73.09,0,.14.06.14.12,0,.08-.04.17-.12.17l-2.7.15c-.08,0-.12-.08-.13-.15,0-.07.03-.14.1-.14.49-.03.9-.12.86-.83l-.19-3.53c-.04-.81-.11-1.04-.92-.99-.08,0-.14-.08-.14-.15,0-.07.03-.13.11-.13.5-.03.88-.26,1.16-.42.17-.1.3-.18.4-.18.11,0,.18.11.2.48l.04.71c0,.08,0,.13.06.13.05,0,.14-.13.3-.3.38-.41,1.04-1.11,1.7-1.15,1.42-.08,1.56,1.64,1.62,2.76l.14,2.54c.04.69.62.75.96.73.1,0,.14.06.14.13Z"/>
					<path d="M197.43,183.62c0,.07-.03.13-.11.13-.5.03-.88.2-1.17.33-.17.08-.3.14-.41.14-.11,0-.17-.06-.19-.34l-.02-.37c-.01-.1-.04-.14-.08-.14-.03,0-.11.07-.23.16-.32.26-.93.76-1.58.8-1.48.08-2.24-1.33-2.32-2.83-.1-1.76.95-3.68,2.58-3.77.37-.02.65.1.88.19.15.06.28.12.39.11.04,0,.06-.03.06-.07l-.09-1.74c-.04-.81-.11-1.04-.92-.99-.08,0-.14-.08-.14-.15,0-.06.03-.12.11-.13.5-.03.88-.31,1.16-.51.17-.12.3-.22.4-.22.11,0,.18.11.2.48l.43,7.85c.04.81.11.97.92.93.08,0,.13.07.14.15ZM195.46,182.3l-.14-2.55c-.05-1-.85-1.69-1.54-1.66-1.09.06-1.66,1.44-1.59,2.79s.71,2.73,2.03,2.66c.49-.03,1.28-.4,1.23-1.24Z"/>
					<path d="M205.5,182.18c.06,1.06-1.05,1.58-1.85,1.62-.9.05-1.8-.26-1.9-.54-.16-.48-.43-1.65-.46-2.15,0-.08.06-.13.14-.14.07,0,.14.05.17.12.6,1.73,1.47,2.44,2.08,2.41.59-.03.93-.48.9-.98-.04-.7-.66-1.14-1.54-1.74-1.33-.91-1.7-1.35-1.73-2.07-.05-.94.97-1.47,1.91-1.52.78-.04,1.54.24,1.61.49l.27,1.52c0,.06-.02.11-.08.13-.02,0-.04.01-.05.01-.07,0-.14-.05-.16-.12-.52-1.37-1.3-1.75-1.71-1.73-.6.03-.9.47-.87,1.04.02.44.46.92,1.42,1.55.92.61,1.82,1.26,1.86,2.09Z"/>
					<path d="M209.04,183.19c0,.08-.04.17-.12.17l-2.7.15c-.08,0-.12-.08-.13-.15,0-.07.03-.14.1-.14.49-.03.9-.12.86-.83l-.19-3.53c-.04-.81-.11-1.04-.92-.99-.08,0-.13-.08-.14-.15,0-.06.03-.13.11-.13.5-.03.88-.26,1.16-.42.17-.1.3-.18.4-.18.11,0,.18.11.2.48l.27,4.88c.04.69.62.75.96.73.09,0,.14.06.14.12ZM206.21,175.25c-.02-.35.24-.7.6-.72.36-.02.66.3.67.65.02.35-.23.7-.6.72-.37.02-.65-.3-.67-.65Z"/>
					<path d="M213.8,180.62c-.02.55-.16,2.05-.23,2.37-.05.24-.31.14-1.18.19l-2.52.14c-.31.02-.52.01-.53-.17,0-.07.02-.18.1-.32l2.77-5.22c.06-.1.17-.29.16-.39,0-.1-.07-.1-.27-.08l-.9.05c-.92.05-1.03.3-1.35,1.2l-.16.44c-.02.07-.05.11-.14.12-.09,0-.12-.06-.12-.14,0-.14.1-1.53.11-1.61.02-.19.06-.24.21-.24.13,0,.35.02.73,0l2.19-.12c.69-.04.89-.11.9.12,0,.12-.15.37-.22.51l-2.63,4.95c-.09.18-.17.33-.17.43,0,.1.08.15.28.14l1.03-.06c.7-.04,1.02-.42,1.51-1.8l.18-.52c.02-.07.05-.11.14-.12.09,0,.12.06.12.14Z"/>
					<path d="M217.4,182.73c0,.08-.04.17-.12.17l-2.7.15c-.08,0-.12-.08-.13-.15,0-.07.03-.14.1-.14.49-.03.9-.12.86-.83l-.19-3.53c-.04-.81-.11-1.04-.92-.99-.08,0-.14-.08-.14-.15,0-.06.03-.13.11-.13.5-.03.88-.25,1.16-.42.17-.1.3-.18.4-.18.11,0,.18.11.2.48l.27,4.88c.04.69.62.75.96.73.09,0,.14.06.14.12ZM214.57,174.8c-.02-.35.24-.7.6-.72.36-.02.66.3.67.65.02.35-.23.7-.6.72-.37.02-.65-.3-.67-.65Z"/>
					<path d="M224.2,182.36c0,.08-.04.17-.12.17l-2.7.15c-.08,0-.12-.08-.13-.15,0-.07.03-.14.1-.14.49-.03.9-.12.86-.83l-.12-2.13c-.1-1.79-.36-2.51-1.11-2.46-.18,0-1.72.32-1.6,2.51l.12,2.23c.04.69.62.75.96.73.09,0,.14.06.14.12,0,.08-.04.17-.12.17l-2.7.15c-.08,0-.12-.08-.13-.15,0-.07.03-.14.1-.14.49-.03.9-.12.86-.83l-.19-3.53c-.04-.81-.11-1.04-.92-.99-.08,0-.14-.08-.14-.15,0-.07.03-.13.11-.13.5-.03.88-.26,1.16-.42.17-.1.3-.18.4-.18.11,0,.18.11.2.48l.04.71c0,.08,0,.13.06.13.05,0,.14-.13.3-.3.38-.41,1.04-1.11,1.7-1.15,1.42-.08,1.56,1.64,1.62,2.76l.14,2.54c.04.69.62.75.96.73.09,0,.14.06.14.13Z"/>
					<path d="M227.3,181.74c1.3-.07,2.86-.09,2.94,1.4.07,1.28-1.22,2.99-3.45,3.11-1.08.06-2.41-.38-2.48-1.63-.05-.86.96-1.53,1.6-1.83.07-.03.1-.06.1-.09,0-.05-.1-.06-.23-.07-.67-.06-1.12-.38-1.15-.95-.02-.31.38-.87,1.11-1.18.1-.05.16-.07.16-.1,0-.02-.04-.05-.12-.08-.82-.33-1.24-1.13-1.29-1.96-.06-1.16.81-2.42,2.08-2.49.4-.02.79.04,1.15.21.09.04.16.06.21.06.06,0,.11-.04.14-.09.22-.38.5-.75.97-.78.32-.02.6.11.62.45.02.32-.19.42-.42.43-.18,0-.35-.03-.48-.06-.06-.01-.11-.02-.14-.03-.03,0-.05,0-.07,0-.16,0-.31.11-.3.27,0,.08.04.16.13.26.31.39.48.87.51,1.37.06,1.15-.66,2.43-1.96,2.5-.96.05-1.43.56-1.42.74.03.57.85.59,1.79.53ZM229.67,183.59c-.05-.97-1.14-.94-2.21-.93h-.51c-.94.02-1.68,1.08-1.65,1.74.05.91.93,1.36,1.89,1.31,1.37-.07,2.52-1.25,2.47-2.12ZM226.92,180.16c.89-.05,1.16-.85,1.11-1.77-.06-1.09-.53-2.26-1.53-2.21-.87.05-1.19.88-1.14,1.79.06,1.13.54,2.24,1.55,2.19Z"/>
				</g>
			</g>
			<g data-name="item" data-cursor="❓" data-cursor-attach="#pr">
				<path d="M297.38,199.09c.15,8.45,14.93,14.97-87.18,18.9-48.6,1.87-93.17,5.14-91.79-8.94,1.48-15.11-9.78-14.36,90.25-19.3,48.59-2.4,88.43-7.52,88.72,9.34Z"/>
				<g>
					<path d="M141.71,202.11c0,.07-.05.13-.2.14-.94.05-.94.48-.88,1.6l.19,3.56c.16,2.94-1.19,4.13-2.66,4.21-2.24.12-3.36-1.21-3.48-3.51l-.25-4.69c-.04-.69-.68-.75-1.05-.73-.1,0-.15-.06-.15-.12,0-.08.05-.17.14-.17l2.99-.16c.08,0,.14.08.14.15,0,.07-.03.14-.11.14-.54.03-1,.13-.96.84l.22,4.05c.14,2.64,1.17,3.62,2.77,3.53,1.1-.06,2.09-1.1,1.96-3.48l-.19-3.54c-.07-1.22-.16-1.6-1.09-1.55-.12,0-.17-.06-.18-.13,0-.08.06-.16.18-.17l2.41-.13c.12,0,.21.08.21.15Z"/>
					<path d="M147.95,207.52c.09,1.74-.68,3.65-2.5,3.75-.39.02-.78-.11-1.08-.22-.09-.03-.15-.05-.2-.05-.08,0-.1.07-.09.26l.09,1.64.03.63c.04.69.62.75.95.73.09,0,.13.06.14.12,0,.08-.04.17-.12.17l-2.7.15c-.08,0-.12-.08-.13-.15,0-.07.03-.14.1-.14.49-.03.9-.12.86-.83l-.03-.63-.34-6.29c-.04-.81-.11-1.04-.92-.99-.08,0-.13-.08-.14-.15,0-.07.03-.13.11-.13.5-.03.88-.25,1.16-.42.17-.1.3-.18.4-.19.11,0,.18.12.2.48l.02.28c0,.11.04.14.09.13.08,0,.2-.11.38-.25.36-.29.9-.73,1.56-.76,1.31-.07,2.07,1.33,2.15,2.86ZM147.06,207.95c-.07-1.32-.73-2.56-2.02-2.49-.54.03-1.17.46-1.21,1.31l.16,2.92c.06,1.04,1.03,1.21,1.36,1.19,1.2-.07,1.79-1.54,1.71-2.93Z"/>
					<path d="M154.91,210.26c0,.07-.03.13-.11.13-.5.03-.88.2-1.17.33-.17.08-.3.14-.41.14-.11,0-.18-.06-.19-.34l-.02-.38c-.01-.1-.04-.14-.08-.14-.03,0-.11.07-.23.16-.32.26-.94.76-1.58.8-1.48.08-2.24-1.33-2.32-2.83-.1-1.76.94-3.68,2.58-3.77.37-.02.65.1.88.19.15.06.28.12.4.11.04,0,.05-.03.06-.07l-.09-1.74c-.04-.81-.11-1.04-.92-.99-.08,0-.13-.08-.14-.15,0-.06.03-.13.11-.13.5-.03.88-.31,1.16-.51.17-.12.3-.22.4-.23.11,0,.18.11.2.48l.43,7.85c.04.81.11.97.92.93.08,0,.14.08.14.15ZM152.94,208.94l-.14-2.55c-.05-1-.85-1.69-1.54-1.66-1.09.06-1.66,1.44-1.59,2.79s.71,2.73,2.03,2.66c.49-.03,1.28-.4,1.23-1.24Z"/>
					<path d="M160.72,209.28c-.11.4-.58,1.19-1.23,1.23-.57.03-.76-.23-.78-.68-.01-.22-.01-.23-.13-.11-.67.65-1.34.92-1.87.95-.83.05-1.4-.59-1.44-1.35-.07-1.22,1.98-2,2.83-2.44.4-.21.43-.32.41-.57l-.02-.36c-.03-.54-.38-1.61-1.35-1.56-.6.03-.71.52-.77.99-.05.45-.23.68-.54.7-.4.02-.53-.45-.41-.71.31-.69,1.18-1.31,2.2-1.36.89-.05,1.71.41,1.79,1.84l.16,2.95c.04.71.14.91.43.89.19-.01.42-.24.52-.46.03-.07.08-.13.15-.12.06.01.09.07.07.17ZM158.63,208.53l-.07-1.26c0-.1-.03-.18-.25-.09-.58.23-2.05.86-1.99,1.88.04.72.51.98.96.95.75-.04,1.39-.71,1.34-1.49Z"/>
					<path d="M162.57,204.23c-.17,0-.26.05-.25.35l.21,3.78c.05.86.26,1.29.78,1.26.44-.02.68-.6.81-.94.02-.04.06-.07.1-.08.08,0,.16.07.12.15-.09.46-.47,1.52-1.28,1.56-.76.04-1.35-.38-1.41-1.5l-.23-4.19c-.02-.33-.11-.34-.47-.32l-.4.02c-.19.01-.25-.07-.25-.16,0-.1.03-.19.24-.2,1.43-.08,1.36-1.19,1.33-1.82-.02-.29.07-.31.18-.32.08,0,.12.09.13.27l.06,1.15c.02.37.09.62.44.6l1.25-.07c.23-.01.23.11.24.18,0,.08-.08.17-.31.18l-1.3.07Z"/>
					<path d="M169.8,207.04c.1,1.76-1.11,2.98-2.27,3.05-1.71.09-2.54-1.34-2.63-2.9-.09-1.74.82-3.64,2.3-3.72,1.56-.08,2.15,1.35,2.19,2.08.03.52-.08.54-1.28.61l-.28.02-2,.11c-.22.01-.21.11-.21.23.1,1.86,1.24,2.77,2.26,2.71.79-.04,1.4-.71,1.61-2.17,0-.07.1-.1.15-.1.06-.01.12.02.14.08ZM165.68,205.74c0,.08.05.15.24.13l2.11-.11c.3-.02.37-.12.36-.44-.03-.52-.54-1.47-1.36-1.42-.78.04-1.38,1.14-1.34,1.84Z"/>
					<path d="M174.75,208.19c.06,1.06-1.05,1.58-1.85,1.62-.9.05-1.81-.26-1.9-.54-.16-.48-.43-1.65-.46-2.15,0-.08.06-.13.14-.13.08,0,.14.05.17.12.6,1.73,1.47,2.44,2.08,2.41.59-.03.93-.48.9-.98-.04-.7-.66-1.14-1.54-1.74-1.33-.91-1.7-1.35-1.73-2.07-.05-.94.97-1.47,1.91-1.52.78-.04,1.54.24,1.61.49l.27,1.52c0,.06-.02.11-.08.13-.02,0-.04.01-.05.01-.07,0-.14-.05-.16-.12-.52-1.37-1.3-1.75-1.71-1.73-.6.03-.91.47-.87,1.04.02.44.46.92,1.42,1.56.91.61,1.82,1.26,1.86,2.09Z"/>
					<path d="M180.64,203.25c-.17,0-.26.05-.25.35l.21,3.78c.05.86.25,1.29.78,1.26.44-.02.68-.6.81-.94.02-.04.06-.07.1-.08.08,0,.16.07.13.15-.09.46-.47,1.52-1.28,1.56-.76.04-1.35-.38-1.41-1.5l-.23-4.19c-.02-.33-.12-.34-.47-.32l-.4.02c-.19.01-.25-.07-.25-.16,0-.1.03-.19.24-.2,1.43-.08,1.36-1.19,1.33-1.82-.02-.29.07-.31.18-.32.08,0,.12.09.13.27l.06,1.15c.02.37.09.62.44.6l1.25-.07c.23-.01.23.11.24.18,0,.08-.08.17-.31.18l-1.3.07Z"/>
					<path d="M188.47,205.46c.09,1.7-.8,3.52-2.56,3.61-1.9.1-2.87-1.42-2.96-3.03-.09-1.69.79-3.48,2.57-3.58,1.91-.1,2.86,1.4,2.94,3ZM187.5,206.05c-.09-1.59-.89-3.3-2.11-3.23-1.09.06-1.53,1.34-1.45,2.69.09,1.58.87,3.27,2.1,3.2,1.11-.06,1.53-1.32,1.46-2.66Z"/>
					<path d="M198.81,207.87c0,.07-.03.13-.11.13-.5.03-.88.2-1.17.33-.17.08-.3.14-.41.14-.11,0-.18-.06-.19-.34l-.02-.38c-.01-.1-.04-.14-.08-.14-.03,0-.11.07-.23.16-.32.26-.94.76-1.58.8-1.48.08-2.24-1.33-2.32-2.83-.1-1.76.95-3.68,2.58-3.77.37-.02.65.1.88.19.15.06.28.12.39.11.04,0,.05-.03.06-.07l-.09-1.74c-.04-.81-.11-1.04-.92-.99-.08,0-.13-.08-.14-.15,0-.06.03-.13.11-.13.5-.03.88-.31,1.16-.51.17-.12.3-.22.4-.23.11,0,.18.11.2.48l.43,7.85c.04.81.11.97.92.93.08,0,.13.08.14.15ZM196.85,206.55l-.14-2.55c-.05-1-.85-1.69-1.54-1.66-1.09.06-1.66,1.44-1.59,2.79s.71,2.73,2.03,2.66c.49-.03,1.28-.4,1.23-1.24Z"/>
					<path d="M204.62,206.9c-.11.4-.58,1.19-1.23,1.23-.57.03-.76-.23-.78-.68-.01-.22-.01-.23-.13-.11-.67.65-1.34.92-1.87.95-.83.04-1.4-.59-1.44-1.35-.07-1.22,1.98-2,2.83-2.44.4-.21.43-.32.42-.57l-.02-.36c-.03-.54-.38-1.61-1.35-1.56-.6.03-.71.52-.77.99-.05.45-.23.68-.54.7-.4.02-.53-.45-.41-.71.31-.69,1.18-1.31,2.2-1.36.89-.05,1.71.41,1.79,1.84l.16,2.95c.04.71.14.91.43.89.19,0,.42-.24.52-.46.03-.07.08-.13.15-.11.06.01.09.07.07.16ZM202.53,206.14l-.07-1.26c0-.1-.03-.18-.25-.09-.58.23-2.05.86-1.99,1.88.04.72.51.98.96.95.75-.04,1.39-.71,1.34-1.49Z"/>
					<path d="M206.47,201.84c-.17,0-.26.05-.25.35l.21,3.78c.05.86.26,1.29.78,1.26.44-.02.68-.6.81-.94.02-.04.06-.07.1-.08.08,0,.16.07.13.15-.09.46-.47,1.52-1.28,1.56-.76.04-1.35-.38-1.41-1.5l-.23-4.19c-.02-.33-.12-.34-.47-.32l-.4.02c-.19.01-.25-.07-.25-.16,0-.1.03-.19.24-.2,1.43-.08,1.36-1.19,1.33-1.82-.02-.29.07-.31.18-.32.08,0,.12.09.13.27l.06,1.15c.02.37.09.62.44.6l1.25-.07c.23-.01.23.11.24.18,0,.08-.08.17-.31.18l-1.3.07Z"/>
					<path d="M214.29,206.37c-.11.4-.58,1.19-1.23,1.23-.57.03-.76-.23-.78-.68-.01-.22-.01-.23-.13-.11-.67.65-1.34.92-1.87.95-.83.05-1.4-.59-1.44-1.35-.07-1.22,1.98-2,2.83-2.44.4-.21.43-.32.41-.57l-.02-.36c-.03-.54-.38-1.61-1.35-1.56-.6.03-.71.52-.77.99-.05.45-.23.68-.54.7-.4.02-.53-.45-.41-.71.31-.69,1.18-1.31,2.19-1.36.89-.05,1.71.41,1.79,1.84l.16,2.95c.04.71.14.91.43.89.19-.01.42-.24.52-.46.03-.07.08-.13.15-.11.06.01.09.07.07.16ZM212.2,205.61l-.07-1.26c0-.1-.03-.18-.25-.09-.58.23-2.05.86-1.99,1.88.04.72.51.98.96.95.75-.04,1.39-.71,1.34-1.49Z"/>
					<path d="M224.17,200.68c0,.07-.03.13-.13.14-.44.02-.79.2-1.04,1l-1.59,5.1c-.05.17-.1.23-.22.24-.06,0-.12-.04-.18-.17l-2.33-5.35c-.26-.42-.52-.5-.89-.48-.09,0-.13-.06-.14-.12,0-.08.04-.17.12-.17l2.7-.15c.08,0,.12.08.13.15,0,.07-.03.14-.1.14h-.2c-.32.03-.59.07-.57.36,0,.08.02.17.07.29l1.49,3.52c.08.18.12.26.17.26.04,0,.08-.09.13-.27l.99-3.23c.05-.18.07-.33.07-.46-.03-.5-.49-.57-.88-.55-.08,0-.11-.06-.12-.13,0-.08.04-.16.11-.17l2.27-.12c.08,0,.14.08.14.16Z"/>
					<path d="M227.63,206.51c0,.08-.04.17-.12.17l-2.7.15c-.08,0-.12-.07-.13-.15,0-.07.03-.14.1-.14.49-.03.9-.12.86-.83l-.19-3.53c-.04-.81-.11-1.04-.92-.99-.08,0-.13-.08-.14-.15,0-.06.03-.13.11-.13.5-.03.88-.25,1.16-.42.17-.1.3-.18.4-.18.11,0,.18.12.2.48l.27,4.88c.04.69.62.75.96.73.09,0,.14.06.14.12ZM224.8,198.57c-.02-.35.24-.7.6-.72.36-.02.65.3.67.65.02.35-.23.7-.6.72-.37.02-.66-.3-.67-.65Z"/>
					<path d="M232.18,205.06c.06,1.06-1.05,1.58-1.85,1.62-.9.05-1.81-.26-1.9-.54-.16-.48-.43-1.65-.46-2.15,0-.08.06-.13.14-.13.08,0,.15.05.17.12.59,1.73,1.47,2.44,2.08,2.41.59-.03.92-.49.9-.98-.04-.7-.66-1.14-1.54-1.74-1.33-.91-1.7-1.35-1.74-2.07-.05-.94.97-1.47,1.91-1.52.78-.04,1.54.24,1.61.49l.27,1.52c0,.06-.02.11-.08.13-.02,0-.04.01-.05.01-.07,0-.14-.05-.16-.12-.52-1.37-1.3-1.75-1.71-1.73-.6.03-.9.47-.87,1.04.02.44.46.92,1.42,1.56.91.61,1.82,1.26,1.86,2.09Z"/>
					<path d="M239.14,205.68c0,.06-.03.13-.11.13-.5.03-.88.2-1.17.33-.17.08-.3.14-.41.14-.11,0-.18-.06-.19-.34l-.05-.89c0-.09-.03-.11-.06-.11-.04,0-.12.1-.25.25-.34.4-.99,1.16-1.75,1.2-1.41.08-1.56-1.63-1.62-2.75l-.12-2.19c-.04-.81-.11-1.01-.92-.97-.08,0-.14-.08-.14-.15,0-.06.03-.13.11-.13.5-.03.88-.15,1.17-.24.17-.05.3-.1.41-.1.11,0,.18.11.2.48l.15,2.84c.09,1.72.31,2.51,1.12,2.47.95-.05,1.65-1.34,1.6-2.2l-.12-2.24c-.04-.81-.11-.97-.92-.93-.08,0-.14-.07-.14-.15,0-.06.03-.13.11-.13.5-.03.88-.15,1.17-.24.17-.05.3-.1.41-.1.11,0,.18.11.2.48l.25,4.63c.04.67.16.8.91.76.08,0,.13.08.14.15Z"/>
					<path d="M244.96,204.7c-.11.4-.58,1.19-1.23,1.23-.57.03-.76-.23-.78-.68-.01-.22-.01-.23-.13-.11-.67.65-1.34.92-1.87.95-.83.04-1.4-.59-1.44-1.35-.07-1.22,1.98-2,2.83-2.44.4-.21.43-.32.41-.57l-.02-.36c-.03-.54-.38-1.61-1.35-1.56-.6.03-.71.52-.77.99-.05.45-.23.68-.54.7-.4.02-.53-.45-.41-.71.31-.69,1.18-1.31,2.2-1.36.89-.05,1.71.41,1.79,1.84l.16,2.95c.04.71.14.91.43.89.19-.01.42-.24.52-.46.03-.07.08-.13.15-.11.06.01.09.07.07.16ZM242.87,203.95l-.07-1.26c0-.1-.03-.18-.25-.09-.58.23-2.05.86-1.99,1.88.04.72.51.98.96.95.75-.04,1.39-.71,1.34-1.49Z"/>
					<path d="M248.02,205.4c0,.08-.04.17-.12.17l-2.7.15c-.08,0-.12-.08-.13-.15,0-.07.03-.14.1-.14.49-.03.9-.12.86-.83l-.37-6.78c-.04-.81-.11-1.03-.92-.99-.08,0-.13-.08-.14-.16,0-.07.03-.13.11-.14.5-.03.88-.31,1.16-.51.17-.12.3-.22.4-.23.11,0,.18.11.2.48l.45,8.27c.04.69.62.75.96.73.09,0,.14.06.14.13Z"/>
					<path d="M251.23,205.22c0,.08-.04.17-.12.17l-2.7.15c-.08,0-.12-.07-.13-.15,0-.07.03-.14.1-.14.49-.03.9-.12.86-.83l-.19-3.53c-.04-.81-.11-1.04-.92-.99-.08,0-.13-.08-.14-.15,0-.06.03-.13.11-.13.5-.03.88-.25,1.16-.42.17-.1.3-.18.4-.18.11,0,.18.12.2.48l.27,4.88c.04.69.62.75.96.73.09,0,.14.06.14.12ZM248.4,197.29c-.02-.35.24-.7.6-.72.36-.02.65.3.67.65.02.35-.23.7-.6.72-.37.02-.66-.3-.67-.65Z"/>
					<path d="M255.78,203.78c.06,1.06-1.05,1.58-1.85,1.62-.9.05-1.81-.26-1.9-.54-.16-.48-.43-1.65-.46-2.15,0-.08.06-.13.13-.13.08,0,.15.05.17.12.59,1.73,1.47,2.44,2.08,2.41.59-.03.93-.48.9-.98-.04-.7-.66-1.14-1.54-1.74-1.33-.91-1.7-1.35-1.74-2.07-.05-.94.97-1.47,1.91-1.52.78-.04,1.54.24,1.61.49l.27,1.52c0,.06-.02.11-.08.13-.02,0-.04.01-.05.01-.07,0-.14-.05-.16-.12-.52-1.37-1.3-1.75-1.71-1.73-.6.03-.91.47-.87,1.04.02.44.46.92,1.42,1.56.91.61,1.82,1.26,1.86,2.09Z"/>
					<path d="M261.89,203.78c-.11.4-.58,1.19-1.23,1.23-.57.03-.76-.23-.78-.68-.01-.22-.01-.23-.13-.11-.67.65-1.34.92-1.87.95-.83.04-1.4-.59-1.44-1.35-.07-1.22,1.98-2,2.83-2.44.4-.21.43-.32.41-.57l-.02-.36c-.03-.54-.38-1.61-1.35-1.56-.6.03-.71.52-.77.99-.05.45-.23.68-.54.7-.4.02-.53-.45-.41-.71.31-.69,1.18-1.31,2.19-1.36.89-.05,1.71.41,1.79,1.84l.16,2.95c.04.71.14.91.43.89.19-.01.42-.24.52-.46.03-.07.08-.13.15-.11.06.01.09.07.07.16ZM259.81,203.03l-.07-1.26c0-.1-.03-.18-.25-.09-.58.23-2.05.86-1.99,1.88.04.72.51.98.96.95.75-.04,1.39-.71,1.34-1.49Z"/>
					<path d="M263.75,198.73c-.17,0-.26.05-.25.35l.21,3.78c.05.86.26,1.29.78,1.26.44-.02.68-.6.81-.94.02-.04.06-.07.1-.08.08,0,.16.07.13.15-.09.46-.47,1.52-1.28,1.56-.76.04-1.35-.38-1.41-1.5l-.23-4.19c-.02-.33-.12-.34-.47-.32l-.4.02c-.19.01-.25-.07-.25-.16,0-.1.03-.19.24-.2,1.43-.08,1.36-1.19,1.33-1.82-.02-.29.07-.31.18-.32.08,0,.12.09.13.27l.06,1.15c.02.37.09.62.44.6l1.25-.07c.23-.01.23.11.24.18,0,.08-.08.17-.31.18l-1.3.07Z"/>
					<path d="M269,204.26c0,.08-.04.17-.12.17l-2.7.15c-.08,0-.12-.07-.13-.15,0-.07.03-.14.1-.14.49-.03.9-.12.86-.83l-.19-3.53c-.04-.81-.11-1.04-.92-.99-.08,0-.13-.08-.14-.15,0-.06.03-.13.11-.13.5-.03.88-.25,1.16-.42.17-.1.3-.18.4-.18.11,0,.18.12.2.48l.27,4.88c.04.69.62.75.96.73.09,0,.14.06.14.12ZM266.17,196.33c-.02-.35.24-.7.6-.72.36-.02.65.3.67.65.02.35-.23.7-.6.72-.37.02-.66-.3-.67-.65Z"/>
					<path d="M274.79,200.77c.09,1.7-.8,3.52-2.56,3.61-1.9.1-2.87-1.42-2.96-3.03-.09-1.69.79-3.48,2.57-3.58,1.91-.1,2.86,1.4,2.94,3ZM273.81,201.35c-.09-1.59-.89-3.3-2.11-3.23-1.09.06-1.53,1.34-1.45,2.69.09,1.58.87,3.27,2.1,3.2,1.11-.06,1.54-1.32,1.46-2.66Z"/>
					<path d="M282.03,203.55c0,.08-.04.17-.12.17l-2.7.15c-.08,0-.12-.07-.13-.15,0-.07.03-.14.1-.14.49-.03.9-.12.86-.83l-.12-2.13c-.1-1.79-.36-2.5-1.11-2.46-.18,0-1.72.32-1.6,2.51l.12,2.23c.04.69.62.75.96.73.09,0,.14.06.14.12,0,.08-.04.17-.12.17l-2.7.15c-.08,0-.12-.07-.13-.15,0-.07.03-.14.1-.14.49-.03.9-.12.86-.83l-.19-3.53c-.04-.81-.11-1.04-.92-.99-.08,0-.14-.08-.14-.15,0-.07.03-.13.11-.13.5-.03.88-.25,1.16-.42.17-.1.3-.18.4-.18.11,0,.18.12.2.48l.04.71c0,.08,0,.13.06.13.05,0,.14-.13.3-.3.38-.42,1.04-1.11,1.7-1.15,1.42-.08,1.56,1.64,1.62,2.76l.14,2.54c.04.69.62.75.96.73.09,0,.14.06.14.13Z"/>
				</g>
			</g>
			<g data-name="label">
				<path d="M111.35,176.01c-1.26.3-2.51.36-3.86.44-1.51.09-3.04.09-4.55.01-1.82-.05-3.74-.04-5.58-.15-1.86-.07-3.69-.19-5.53-.19-2.92.02-5.8.08-8.63-.64-1.66-.42-3.24-1.28-4.46-2.59-1-1.14-1.84-2.5-2.21-4.03-.5-2.09-.23-4.42.77-6.31.7-1.28,1.72-2.35,2.84-3.19,1.29-.93,2.86-1.49,4.39-1.8,1.5-.29,3-.33,4.5-.47,2.12-.23,4.22-.14,6.35-.09.8,0,1.59.04,2.39.1,2.95.17,5.88.22,8.85.29,2.2.06,4.5.41,6.52,1.34,3.56,1.68,6.54,4.75,5.99,9.23-.2,1.63-.72,3.23-1.69,4.5-.6.81-1.34,1.62-2.16,2.15-1.17.79-2.54,1.11-3.92,1.4h0Z"/>
				<g>
					<path d="M81.82,163.5h3.1s.95,2.83.95,2.83l.96-2.81h3.1s-.02,6.4-.02,6.4h-2.13s.01-4.36.01-4.36l-1.45,4.35h-1.29s-1.37-4.36-1.37-4.36v4.36s-1.88,0-1.88,0l.02-6.39Z"/>
					<path d="M91.11,163.53h2.13s-.02,6.4-.02,6.4h-2.13s.02-6.4.02-6.4Z"/>
					<path d="M94.44,163.54h2.15s1.97,2.9,1.97,2.9v-2.89s1.99,0,1.99,0l-.02,6.39h-2.15s-1.97-2.89-1.97-2.89v2.88s-1.99,0-1.99,0l.02-6.39Z"/>
					<path d="M101.46,166.77c0-2.2,1.58-3.35,3.26-3.34,1.7,0,3.27,1.16,3.27,3.36,0,2.18-1.58,3.31-3.28,3.3-1.67,0-3.25-1.14-3.24-3.32ZM105.74,166.98v-.42c0-.79-.42-1.17-1-1.17-.6,0-1.02.38-1.02,1.17v.42c0,.81.41,1.17,1.01,1.17.58,0,1.01-.36,1.01-1.17Z"/>
					<path d="M108.85,163.57h3.68c1.47.01,2.08.87,2.08,1.72,0,.78-.44,1.56-1.29,1.85l1.69,2.83h-2.5s-1.26-2.4-1.26-2.4h-.27v2.39s-2.13,0-2.13,0l.02-6.39ZM112.51,166.02c0-.2-.15-.4-.47-.4h-1.07s0,.79,0,.79h1.07c.32,0,.47-.19.47-.39Z"/>
				</g>
			</g>
		</g>
		<g id="research">
			<g data-name="item" data-cursor="❓" data-cursor-attach="#ou">
				<path d="M223.44,315.21c.16,8.45,14.07,15.02-81.79,18.61-45.62,1.71-87.45,4.83-86.21-9.25,1.34-15.1-9.23-14.39,84.67-19,45.61-2.24,83-7.23,83.32,9.63Z"/>
				<g>
					<path d="M78.72,317.6c0,.07-.05.13-.2.14-.94.05-.94.48-.88,1.6l.19,3.56c.16,2.94-1.19,4.13-2.66,4.21-2.24.12-3.36-1.21-3.48-3.51l-.26-4.69c-.04-.69-.68-.75-1.05-.73-.1,0-.15-.05-.15-.12,0-.08.05-.17.14-.17l2.99-.16c.08,0,.14.08.14.15,0,.07-.03.14-.11.14-.54.03-1,.13-.96.84l.22,4.05c.14,2.64,1.17,3.62,2.77,3.53,1.1-.06,2.09-1.1,1.96-3.48l-.19-3.54c-.07-1.22-.16-1.6-1.09-1.55-.12,0-.17-.06-.18-.13,0-.08.06-.16.18-.17l2.41-.13c.12,0,.21.08.21.16Z"/>
					<path d="M84.96,323c.09,1.74-.68,3.65-2.5,3.75-.39.02-.78-.11-1.08-.22-.09-.03-.15-.05-.2-.05-.08,0-.1.07-.09.26l.09,1.63.03.63c.04.69.62.75.95.73.09,0,.14.06.14.12,0,.08-.04.17-.12.17l-2.7.15c-.08,0-.12-.08-.13-.16,0-.07.03-.14.1-.14.49-.03.9-.12.86-.83l-.03-.63-.34-6.29c-.04-.81-.11-1.04-.92-.99-.08,0-.14-.08-.14-.15,0-.07.03-.13.11-.13.5-.03.88-.25,1.16-.42.17-.1.3-.18.4-.18.11,0,.18.11.2.48l.02.28c0,.11.04.14.1.13.08,0,.2-.11.37-.25.36-.29.9-.73,1.56-.76,1.31-.07,2.07,1.33,2.15,2.86ZM84.07,323.44c-.07-1.32-.73-2.56-2.02-2.49-.54.03-1.17.46-1.21,1.31l.16,2.92c.06,1.04,1.03,1.21,1.36,1.19,1.2-.06,1.79-1.54,1.71-2.93Z"/>
					<path d="M91.92,325.75c0,.07-.03.13-.11.13-.5.03-.88.2-1.17.33-.17.08-.3.14-.41.14-.11,0-.17-.06-.19-.34l-.02-.37c-.01-.1-.04-.14-.08-.14-.03,0-.11.07-.23.16-.32.26-.94.76-1.58.8-1.48.08-2.24-1.33-2.32-2.83-.1-1.76.95-3.68,2.58-3.77.37-.02.65.1.88.19.15.06.28.12.39.11.04,0,.06-.03.06-.07l-.09-1.74c-.04-.81-.11-1.04-.92-.99-.08,0-.14-.08-.14-.15,0-.06.03-.12.11-.13.5-.03.88-.31,1.16-.51.17-.12.3-.22.4-.22.11,0,.18.11.2.48l.43,7.85c.04.81.11.97.92.93.08,0,.13.08.14.15ZM89.96,324.43l-.14-2.55c-.05-1-.85-1.69-1.54-1.66-1.09.06-1.66,1.44-1.59,2.79s.71,2.73,2.03,2.66c.49-.03,1.28-.4,1.23-1.24Z"/>
					<path d="M97.73,324.77c-.11.4-.58,1.19-1.23,1.23-.57.03-.76-.24-.78-.68-.01-.22-.01-.23-.13-.11-.67.65-1.34.92-1.87.95-.83.04-1.4-.59-1.44-1.35-.07-1.22,1.98-2,2.83-2.44.4-.21.43-.32.41-.57l-.02-.36c-.03-.54-.38-1.61-1.35-1.56-.6.03-.71.52-.77.99-.05.45-.23.68-.54.7-.4.02-.53-.45-.41-.71.31-.69,1.18-1.31,2.2-1.36.89-.05,1.71.41,1.79,1.84l.16,2.95c.04.71.14.91.43.89.19-.01.42-.25.52-.46.03-.07.08-.12.15-.11.06.01.09.07.07.16ZM95.64,324.02l-.07-1.26c0-.1-.03-.18-.25-.09-.58.23-2.05.86-1.99,1.88.04.72.51.98.96.95.75-.04,1.39-.71,1.35-1.48Z"/>
					<path d="M99.59,319.72c-.17,0-.26.05-.25.35l.21,3.78c.05.86.26,1.29.78,1.26.44-.02.68-.6.81-.94.02-.04.06-.08.1-.08.08,0,.16.07.13.15-.09.46-.47,1.52-1.28,1.57-.76.04-1.35-.38-1.41-1.5l-.23-4.19c-.02-.33-.12-.33-.47-.31l-.4.02c-.19.01-.25-.07-.25-.16,0-.1.03-.19.24-.2,1.43-.08,1.36-1.19,1.32-1.82-.02-.29.07-.31.18-.32.08,0,.12.09.13.27l.06,1.15c.02.37.09.62.44.6l1.25-.07c.23-.01.23.11.24.18,0,.08-.08.17-.31.18l-1.3.07Z"/>
					<path d="M106.81,322.53c.1,1.76-1.11,2.99-2.27,3.05-1.71.09-2.54-1.34-2.63-2.9-.09-1.74.82-3.64,2.3-3.72,1.56-.08,2.16,1.35,2.19,2.08.03.52-.08.54-1.28.61h-.28s-2,.12-2,.12c-.22.01-.21.11-.21.23.1,1.86,1.24,2.77,2.26,2.71.79-.04,1.4-.71,1.61-2.17,0-.07.1-.1.15-.1.06-.01.12.02.14.08ZM102.69,321.23c0,.08.05.14.24.13l2.11-.12c.3-.02.37-.12.35-.44-.03-.52-.54-1.47-1.36-1.42-.78.04-1.38,1.14-1.34,1.84Z"/>
					<path d="M113.68,324.56c0,.07-.03.13-.11.13-.5.03-.88.2-1.17.33-.17.08-.3.14-.41.14-.11,0-.17-.06-.19-.34l-.02-.37c-.01-.1-.04-.14-.08-.14-.03,0-.11.07-.23.16-.32.26-.93.76-1.58.8-1.48.08-2.24-1.33-2.32-2.83-.1-1.76.95-3.68,2.58-3.77.37-.02.65.1.88.19.15.06.28.12.39.11.04,0,.06-.03.06-.07l-.09-1.74c-.04-.81-.11-1.04-.92-.99-.08,0-.14-.08-.14-.15,0-.06.03-.12.11-.13.5-.03.88-.31,1.16-.51.17-.12.3-.22.4-.22.11,0,.18.11.2.48l.43,7.85c.04.81.11.97.92.93.08,0,.13.07.14.15ZM111.72,323.24l-.14-2.55c-.05-1-.85-1.69-1.54-1.66-1.09.06-1.66,1.44-1.59,2.79s.71,2.73,2.03,2.66c.49-.03,1.28-.4,1.23-1.24Z"/>
					<path d="M124,324.21c0,.08-.04.17-.12.17l-2.7.15c-.08,0-.12-.08-.13-.15,0-.07.03-.14.1-.14.49-.03.9-.12.86-.83l-.12-2.13c-.1-1.79-.36-2.5-1.11-2.46-.18,0-1.72.32-1.6,2.51l.12,2.23c.04.69.62.75.96.73.09,0,.14.06.14.12,0,.08-.04.17-.12.17l-2.7.15c-.08,0-.12-.08-.13-.15,0-.07.03-.14.1-.14.49-.03.9-.12.86-.83l-.19-3.53c-.04-.81-.11-1.04-.92-.99-.08,0-.14-.08-.14-.15,0-.07.03-.13.11-.13.5-.03.88-.25,1.16-.42.17-.1.3-.18.4-.18.11,0,.18.11.2.48l.04.71c0,.08,0,.13.06.13.05,0,.14-.13.3-.3.38-.41,1.04-1.11,1.7-1.15,1.42-.08,1.56,1.64,1.62,2.76l.14,2.54c.04.69.62.75.96.73.09,0,.14.06.14.13Z"/>
					<path d="M129.76,323.03c-.1.4-.58,1.19-1.23,1.23-.57.03-.76-.24-.78-.68-.01-.22-.01-.23-.13-.11-.67.65-1.34.92-1.87.95-.83.04-1.4-.59-1.44-1.35-.07-1.22,1.98-2,2.83-2.44.4-.21.43-.32.41-.57l-.02-.36c-.03-.54-.38-1.61-1.35-1.56-.6.03-.71.52-.77.99-.05.45-.23.68-.54.7-.4.02-.53-.45-.41-.71.31-.69,1.18-1.31,2.2-1.36.88-.05,1.71.41,1.79,1.84l.16,2.95c.04.71.14.91.43.89.19-.01.42-.25.52-.46.03-.07.08-.13.15-.11.06.01.09.07.07.16ZM127.67,322.27l-.07-1.26c0-.1-.03-.18-.25-.09-.58.23-2.05.86-1.99,1.88.04.72.51.98.96.95.75-.04,1.39-.71,1.34-1.48Z"/>
					<path d="M135.35,317.57c0,.07-.03.13-.13.14-.44.02-.79.2-1.04,1l-1.59,5.1c-.05.17-.1.23-.22.24-.06,0-.12-.04-.18-.17l-2.33-5.35c-.26-.42-.52-.5-.89-.48-.09,0-.14-.06-.14-.12,0-.08.04-.17.12-.17l2.7-.15c.08,0,.12.08.13.15,0,.07-.03.14-.1.14h-.2c-.32.03-.58.07-.57.36,0,.08.02.17.07.29l1.5,3.52c.08.18.12.26.17.25.04,0,.08-.09.13-.27l.99-3.23c.05-.18.07-.33.07-.46-.03-.5-.49-.57-.88-.55-.08,0-.11-.06-.12-.13,0-.08.03-.16.11-.17l2.27-.12c.08,0,.14.08.14.16Z"/>
					<path d="M138.8,323.4c0,.08-.04.17-.12.17l-2.7.15c-.08,0-.12-.08-.13-.15,0-.07.03-.14.1-.14.49-.03.9-.12.86-.83l-.19-3.53c-.04-.81-.11-1.04-.92-.99-.08,0-.14-.08-.14-.15,0-.06.03-.13.11-.13.5-.03.88-.25,1.16-.42.17-.1.3-.18.4-.18.11,0,.18.11.2.48l.27,4.88c.04.69.62.75.96.73.1,0,.14.06.14.12ZM135.98,315.47c-.02-.35.24-.7.6-.72.36-.02.66.3.67.65.02.35-.23.7-.6.72-.37.02-.65-.3-.67-.65Z"/>
					<path d="M141.93,322.78c1.3-.07,2.86-.09,2.94,1.4.07,1.28-1.22,2.99-3.45,3.11-1.07.06-2.41-.38-2.48-1.63-.05-.86.96-1.54,1.6-1.83.07-.03.1-.06.1-.09,0-.05-.1-.06-.23-.07-.67-.06-1.12-.38-1.15-.95-.02-.31.38-.87,1.11-1.18.1-.05.16-.07.16-.1,0-.02-.04-.05-.12-.08-.82-.33-1.24-1.13-1.29-1.96-.06-1.16.81-2.42,2.08-2.49.4-.02.79.04,1.15.21.09.04.16.06.21.06.06,0,.1-.04.13-.09.22-.38.5-.75.97-.78.32-.02.6.11.62.45.02.32-.19.42-.42.43-.18,0-.35-.03-.48-.06-.06-.01-.1-.02-.14-.03-.03,0-.05,0-.07,0-.16,0-.31.11-.3.27,0,.08.04.16.13.26.31.39.48.87.51,1.37.06,1.15-.66,2.43-1.96,2.5-.96.05-1.43.56-1.42.74.03.57.85.59,1.79.53ZM144.3,324.62c-.05-.97-1.14-.94-2.21-.93h-.51c-.94.02-1.68,1.08-1.65,1.74.05.91.93,1.36,1.89,1.31,1.36-.07,2.52-1.25,2.47-2.12ZM141.54,321.19c.89-.05,1.16-.85,1.11-1.77-.06-1.09-.53-2.26-1.53-2.21-.87.05-1.19.88-1.14,1.79.06,1.13.54,2.24,1.55,2.19Z"/>
					<path d="M150.39,321.91c-.11.4-.58,1.19-1.23,1.23-.57.03-.76-.24-.78-.68-.01-.22-.01-.23-.13-.11-.67.65-1.34.92-1.87.95-.83.04-1.4-.59-1.44-1.35-.07-1.22,1.98-2,2.83-2.44.4-.21.43-.32.41-.57l-.02-.36c-.03-.54-.38-1.61-1.35-1.56-.6.03-.71.52-.77.99-.05.45-.23.68-.54.7-.4.02-.53-.45-.41-.71.31-.69,1.18-1.31,2.19-1.36.89-.05,1.71.41,1.79,1.84l.16,2.95c.04.71.14.91.43.89.19,0,.42-.25.52-.46.03-.07.08-.13.15-.11.06.01.09.07.07.16ZM148.31,321.15l-.07-1.26c0-.1-.03-.18-.25-.09-.58.23-2.05.86-1.99,1.88.04.72.51.98.96.95.75-.04,1.39-.71,1.35-1.49Z"/>
					<path d="M152.25,316.85c-.17,0-.26.05-.25.35l.21,3.78c.05.86.26,1.29.78,1.26.44-.02.68-.6.81-.94.02-.04.06-.07.1-.08.08,0,.16.07.13.15-.09.46-.47,1.52-1.28,1.57-.76.04-1.35-.38-1.41-1.5l-.23-4.19c-.02-.33-.12-.33-.47-.32l-.4.02c-.19.01-.25-.07-.25-.16,0-.1.03-.19.24-.2,1.43-.08,1.36-1.19,1.33-1.82-.02-.29.07-.31.18-.32.08,0,.12.09.13.27l.06,1.15c.02.37.09.62.44.6l1.25-.07c.23-.01.23.11.24.18,0,.08-.08.17-.31.18l-1.3.07Z"/>
					<path d="M157.5,322.38c0,.08-.04.17-.12.17l-2.7.15c-.08,0-.12-.08-.13-.15,0-.07.03-.14.1-.14.49-.03.9-.12.86-.83l-.19-3.53c-.04-.81-.11-1.04-.92-.99-.08,0-.14-.08-.14-.15,0-.06.03-.13.11-.13.5-.03.88-.25,1.16-.42.17-.1.3-.18.4-.18.11,0,.18.11.2.48l.27,4.88c.04.69.62.75.96.73.09,0,.14.06.14.12ZM154.67,314.45c-.02-.35.24-.7.6-.72.36-.02.66.3.67.65.02.35-.23.7-.6.72-.37.02-.65-.3-.67-.65Z"/>
					<path d="M163.29,318.89c.09,1.7-.8,3.52-2.56,3.62-1.9.1-2.87-1.42-2.96-3.03-.09-1.69.79-3.48,2.57-3.58,1.91-.1,2.86,1.4,2.95,3ZM162.31,319.48c-.09-1.59-.89-3.3-2.11-3.23-1.09.06-1.53,1.34-1.45,2.69.09,1.58.87,3.27,2.1,3.2,1.11-.06,1.54-1.32,1.46-2.66Z"/>
					<path d="M170.53,321.68c0,.08-.04.17-.12.17l-2.7.15c-.08,0-.12-.08-.13-.15,0-.07.03-.14.1-.14.49-.03.9-.12.86-.83l-.12-2.13c-.1-1.79-.36-2.5-1.11-2.46-.18,0-1.72.32-1.6,2.51l.12,2.23c.04.69.62.75.96.73.09,0,.14.06.14.12,0,.08-.04.17-.12.17l-2.7.15c-.08,0-.12-.08-.13-.15,0-.07.03-.14.1-.14.49-.03.9-.12.86-.83l-.19-3.53c-.04-.81-.11-1.04-.92-.99-.08,0-.13-.08-.14-.15,0-.07.03-.13.11-.13.5-.03.88-.25,1.16-.42.17-.1.3-.18.4-.18.11,0,.18.11.2.48l.04.71c0,.08,0,.13.06.13.05,0,.14-.13.3-.3.38-.41,1.04-1.11,1.7-1.15,1.41-.08,1.56,1.64,1.62,2.76l.14,2.54c.04.69.62.75.96.73.1,0,.14.06.14.13Z"/>
					<path d="M179.77,320.31c-.11.4-.58,1.19-1.23,1.23-.57.03-.76-.24-.78-.68-.01-.22-.01-.23-.13-.11-.67.65-1.34.92-1.87.95-.83.04-1.4-.59-1.44-1.35-.07-1.22,1.98-2,2.83-2.44.4-.21.43-.32.41-.57l-.02-.36c-.03-.54-.38-1.61-1.35-1.56-.6.03-.71.52-.77.99-.05.45-.23.68-.54.7-.4.02-.53-.45-.41-.71.31-.69,1.18-1.31,2.2-1.36.89-.05,1.71.41,1.79,1.84l.16,2.95c.04.71.14.91.43.89.19-.01.42-.25.52-.46.03-.07.08-.13.15-.11.06.01.09.07.07.16ZM177.68,319.56l-.07-1.26c0-.1-.03-.18-.25-.09-.58.23-2.05.86-1.99,1.88.04.72.51.98.96.95.75-.04,1.39-.71,1.35-1.48Z"/>
					<path d="M186.53,320.81c0,.08-.04.17-.12.17l-2.7.15c-.08,0-.12-.08-.13-.15,0-.07.03-.14.1-.14.49-.03.9-.12.86-.83l-.12-2.13c-.1-1.79-.36-2.51-1.11-2.46-.18,0-1.72.32-1.6,2.51l.12,2.23c.04.69.62.75.96.73.09,0,.14.06.14.12,0,.08-.04.17-.12.17l-2.7.15c-.08,0-.12-.08-.13-.15,0-.07.03-.14.1-.14.49-.03.9-.12.86-.83l-.19-3.53c-.04-.81-.11-1.04-.92-.99-.08,0-.14-.08-.14-.15,0-.07.03-.13.11-.13.5-.03.88-.26,1.16-.42.17-.1.3-.18.4-.18.11,0,.18.11.2.48l.04.71c0,.08,0,.13.06.13.05,0,.14-.13.3-.3.38-.42,1.04-1.11,1.7-1.15,1.42-.08,1.56,1.64,1.62,2.76l.14,2.54c.04.69.62.75.96.73.09,0,.14.06.14.13Z"/>
					<path d="M192.92,320.25c0,.07-.03.13-.11.13-.5.03-.88.2-1.17.33-.17.08-.3.14-.41.14-.11,0-.17-.06-.19-.34l-.02-.37c-.01-.1-.04-.14-.08-.14-.03,0-.11.07-.23.16-.32.26-.93.76-1.58.8-1.48.08-2.24-1.33-2.32-2.83-.1-1.76.95-3.68,2.58-3.77.37-.02.65.1.88.19.15.06.28.12.39.11.04,0,.06-.03.06-.07l-.09-1.74c-.04-.81-.11-1.04-.92-.99-.08,0-.14-.08-.14-.15,0-.06.03-.12.11-.13.5-.03.88-.31,1.16-.51.17-.12.3-.22.4-.22.11,0,.18.11.2.48l.43,7.85c.04.81.11.97.92.93.08,0,.13.07.14.15ZM190.96,318.93l-.14-2.55c-.05-1-.85-1.69-1.54-1.66-1.09.06-1.66,1.44-1.59,2.79s.71,2.73,2.03,2.66c.49-.03,1.28-.4,1.23-1.24Z"/>
					<path d="M199.95,320.08c0,.08-.05.17-.14.17l-2.99.16c-.08,0-.14-.08-.14-.15,0-.07.03-.14.11-.14.54-.03.99-.13.96-.84l-.39-7.21c-.04-.69-.68-.75-1.05-.73-.1,0-.15-.05-.15-.12,0-.08.05-.17.14-.17l2.99-.16c.08,0,.14.08.14.15,0,.07-.03.14-.11.14-.54.03-.99.13-.96.84l.39,7.21c.04.69.68.75,1.05.73.1,0,.15.06.15.12Z"/>
					<path d="M208.87,319.76l-3.25.18c-.16,0-.2-.29-.03-.3.5-.03,1.12-.12.81-.98l-.89-2.2c-.06-.16-.09-.27-.39-.25l-2.3.12c-.28.01-.31.13-.36.29-.21.73-.39,1.36-.48,1.68-.22.76-.42,1.56.7,1.5.23-.01.18.29.02.3l-2.58.14c-.16,0-.2-.29-.03-.3.54-.03.94-.11,1.35-1.46l2.24-7.46c.07-.25.18-.39.29-.4.14,0,.22.07.28.2l3.12,7.48c.47,1.12.81,1.19,1.47,1.16.22-.01.18.29.02.3ZM205.06,315.88c.22-.01.18-.12.14-.22l-1.33-3.29c-.07-.17-.13-.22-.2,0-.17.61-.59,2.07-.98,3.41-.03.11-.05.22.17.21l2.19-.12Z"/>
				</g>
			</g>
			<g data-name="item" data-cursor="❓" data-cursor-attach="#pou">
				<path d="M298.42,345.94c.44,13.88,15.89,25.07-89.09,28.18-49.96,1.48-95.72,5.38-94.78-17.69,1-24.76-10.56-23.89,92.23-28.73,49.93-2.35,90.76-9.45,91.64,18.24Z"/>
				<g>
					<path d="M139.87,348.05s.05.04.08.04c.04,0,.07-.03.07-.26l-.09-5.21c-.02-1.22-.1-1.6-1.04-1.58-.12,0-.17-.06-.17-.13,0-.08.06-.16.18-.17l2.34-.04c.12,0,.2.08.21.16,0,.07-.06.13-.2.14-.91.02-.92.44-.9,1.57l.13,7.43c0,.14-.08.25-.29.25-.08,0-.15-.04-.2-.11l-5.87-8.04s-.04-.05-.06-.05c-.04,0-.07.07-.07.27l.11,5.99c.02,1.22.1,1.6,1.04,1.59.12,0,.17.06.17.13,0,.08-.06.16-.18.17l-2.34.04c-.12,0-.2-.08-.21-.16,0-.07.06-.13.2-.14.89-.02.92-.54.91-1.32l-.12-6.7c-.01-.71-.45-.78-.99-.77-.08,0-.12-.06-.12-.13,0-.08.04-.16.13-.16l1.28-.02c.62-.01.77-.01,1.07.4l4.93,6.82Z"/>
					<path d="M146.82,347.21c.03,1.76-1.22,2.94-2.38,2.96-1.72.03-2.49-1.43-2.52-2.99-.03-1.74.95-3.6,2.44-3.63,1.57-.03,2.1,1.42,2.12,2.16,0,.52-.1.54-1.3.56h-.28s-2.01.04-2.01.04c-.22,0-.22.11-.21.22.03,1.87,1.14,2.81,2.16,2.79.79-.01,1.42-.66,1.69-2.11.01-.07.11-.09.16-.1.06-.01.12.03.14.09ZM142.75,345.76c0,.08.05.15.23.14l2.11-.04c.3,0,.38-.11.37-.42,0-.52-.49-1.49-1.31-1.47-.78.01-1.42,1.08-1.4,1.79Z"/>
					<path d="M156.57,343.64c0,.07-.04.13-.13.13-.44,0-.84.16-1.09.96l-1.6,5.08c-.04.1-.07.18-.2.18-.08,0-.12-.04-.18-.17l-1.56-4.09s-.03-.06-.05-.06-.04.02-.05.06l-1.41,4.14c-.04.1-.07.18-.2.18-.08,0-.12-.04-.17-.17l-2.14-5.43c-.24-.43-.5-.52-.87-.51-.09,0-.13-.06-.13-.13,0-.08.05-.17.13-.17l2.63-.05c.08,0,.12.08.12.16,0,.07-.03.14-.11.14h-.19c-.3,0-.53.04-.53.31,0,.08.02.18.07.31l1.36,3.58c.07.18.11.26.16.26.04,0,.07-.09.14-.26l.94-2.88s.03-.09.03-.13-.01-.09-.03-.13l-.21-.56c-.24-.43-.44-.52-.81-.51-.09,0-.13-.06-.14-.13,0-.08.05-.17.13-.17l2.63-.05c.08,0,.12.08.12.16,0,.07-.03.14-.11.14h-.2c-.32,0-.59.04-.58.34,0,.08.02.17.06.29l1.3,3.58c.07.18.11.26.16.26.04,0,.07-.09.14-.26l.91-3.18c.05-.18.09-.33.08-.45,0-.5-.47-.58-.86-.58-.07,0-.11-.06-.11-.13,0-.08.04-.16.12-.16l2.27-.04c.08,0,.13.08.13.16Z"/>
					<path d="M165.91,348.62c-.12.4-.62,1.17-1.28,1.18-.57.01-.75-.26-.76-.71,0-.22,0-.23-.13-.12-.69.62-1.38.87-1.9.88-.83.01-1.38-.64-1.39-1.4-.02-1.22,2.05-1.93,2.92-2.33.41-.19.44-.3.43-.56v-.36c-.02-.54-.33-1.62-1.29-1.6-.6.01-.73.49-.8.96-.07.45-.26.67-.57.68-.4,0-.51-.47-.39-.73.33-.67,1.23-1.26,2.24-1.28.89-.02,1.69.47,1.72,1.91l.05,2.96c.01.71.11.92.39.91.19,0,.43-.23.54-.44.03-.07.08-.12.15-.11.06.01.09.07.06.17ZM163.85,347.79l-.02-1.26c0-.1-.02-.18-.24-.1-.58.21-2.08.78-2.06,1.81.01.72.47,1,.93.99.75-.01,1.41-.66,1.4-1.44Z"/>
					<path d="M172.64,349.36c0,.08-.05.17-.13.17l-2.7.05c-.08,0-.12-.08-.12-.16,0-.07.03-.14.11-.14.49,0,.91-.09.89-.8l-.04-2.13c-.03-1.79-.27-2.52-1.02-2.5-.18,0-1.73.26-1.69,2.45l.04,2.23c.01.69.59.77.93.77.09,0,.13.06.13.13,0,.08-.05.17-.13.17l-2.7.05c-.08,0-.12-.08-.12-.16,0-.07.03-.14.11-.14.49,0,.91-.09.89-.8l-.06-3.53c-.01-.81-.07-1.04-.89-1.02-.08,0-.13-.08-.13-.16,0-.07.03-.12.12-.13.5,0,.89-.22,1.17-.38.17-.09.31-.17.41-.17.11,0,.17.12.18.49v.71c.01.08.01.13.07.13.05,0,.15-.12.32-.29.39-.4,1.08-1.07,1.74-1.08,1.42-.03,1.5,1.7,1.52,2.82l.05,2.54c.01.69.59.77.93.77.09,0,.13.06.14.13Z"/>
					<path d="M179.06,349.04c0,.07-.03.12-.12.13-.5,0-.89.17-1.18.29-.17.07-.31.13-.41.13-.11,0-.17-.07-.18-.35v-.38c-.02-.1-.04-.14-.08-.14-.03,0-.11.06-.23.15-.33.25-.96.73-1.61.74-1.48.03-2.19-1.41-2.22-2.91-.03-1.77,1.08-3.64,2.71-3.67.37,0,.65.12.87.22.15.07.28.13.39.12.04,0,.06-.03.06-.07l-.03-1.74c-.01-.81-.07-1.04-.88-1.02-.08,0-.13-.08-.13-.16,0-.06.03-.12.12-.13.5,0,.89-.27,1.17-.47.17-.12.3-.21.41-.21.11,0,.17.12.18.49l.14,7.86c.01.81.07.97.88.96.08,0,.13.08.13.16ZM177.14,347.65l-.05-2.56c-.02-1.01-.78-1.72-1.48-1.71-1.09.02-1.71,1.38-1.69,2.73.02,1.35.61,2.75,1.93,2.73.49,0,1.29-.35,1.28-1.19Z"/>
					<path d="M185.78,349.13c0,.08-.05.17-.13.17l-2.7.05c-.08,0-.12-.08-.12-.16,0-.07.03-.14.11-.14.49,0,.91-.09.89-.8l-.06-3.53c-.01-.82-.07-1.04-.89-1.03-.08,0-.13-.08-.13-.16,0-.06.03-.12.12-.12.5,0,.89-.22,1.17-.38.17-.09.31-.17.41-.17.11,0,.18.12.18.49l.09,4.89c.01.69.59.77.93.77.09,0,.13.06.13.13ZM183.24,341.1c0-.35.26-.69.63-.7.36,0,.64.33.65.68,0,.35-.26.69-.62.7-.37,0-.64-.32-.65-.67Z"/>
					<path d="M196.18,348.94c0,.08-.05.17-.13.17l-2.7.05c-.08,0-.12-.08-.12-.16,0-.07.03-.14.11-.14.49,0,.9-.09.89-.8l-.04-2.13c-.03-1.79-.27-2.52-1.02-2.5-.18,0-1.73.26-1.69,2.4l.04,2.29c.01.69.59.77.93.77.09,0,.13.06.13.13,0,.08-.05.17-.13.17l-2.7.05c-.08,0-.12-.08-.12-.16,0-.07.03-.14.11-.14.49,0,.91-.09.89-.8l-.04-2.13c-.03-1.79-.27-2.52-1.02-2.5-.18,0-1.73.26-1.69,2.45l.04,2.23c.01.69.59.77.93.77.09,0,.13.06.13.13,0,.08-.05.17-.13.17l-2.7.05c-.08,0-.12-.08-.12-.16,0-.07.03-.14.11-.14.49,0,.91-.09.89-.8l-.06-3.53c-.01-.81-.07-1.04-.89-1.02-.08,0-.13-.08-.13-.16,0-.06.03-.12.12-.13.5,0,.89-.22,1.17-.38.17-.09.31-.17.41-.17.11,0,.17.12.18.49v.71c.01.08.02.13.06.13.05,0,.17-.12.34-.29.4-.4,1.07-1.08,1.73-1.09.83-.01,1.2.57,1.37,1.28.02.1.04.11.08.11.05,0,.12-.09.26-.23.4-.41,1.2-1.21,1.9-1.22,1.42-.03,1.5,1.7,1.52,2.82l.04,2.54c.01.69.59.77.92.77.09,0,.13.06.13.13Z"/>
					<path d="M202.1,345.52c.03,1.74-.82,3.62-2.63,3.66-.39,0-.77-.14-1.08-.26-.09-.03-.15-.06-.2-.06-.08,0-.1.07-.1.25l.03,1.64v.63c.02.69.6.77.94.77.09,0,.13.06.13.13,0,.08-.05.17-.13.17l-2.7.05c-.08,0-.12-.08-.12-.16,0-.07.03-.14.11-.14.49,0,.9-.09.89-.8v-.63s-.12-6.29-.12-6.29c-.01-.81-.07-1.04-.88-1.02-.08,0-.13-.08-.13-.16,0-.07.03-.12.12-.13.5,0,.89-.22,1.18-.38.17-.09.31-.17.41-.17.11,0,.17.12.18.49v.28c0,.11.04.14.09.14.08,0,.21-.1.38-.23.37-.27.93-.69,1.59-.71,1.32-.02,2.02,1.4,2.05,2.93ZM201.19,345.92c-.02-1.32-.64-2.59-1.92-2.56-.54,0-1.19.42-1.26,1.27l.05,2.92c.02,1.04.98,1.25,1.32,1.24,1.2-.02,1.84-1.47,1.81-2.87Z"/>
					<path d="M204.73,343.71c.36-.51.87-1.23,1.57-1.25.57,0,.67.4.67.57,0,.51-.31.6-.46.6-.1,0-.18-.05-.26-.11-.19-.13-.36-.19-.53-.19-.54,0-1.19.85-1.17,1.54l.05,3.01c.01.69.59.77.93.77.09,0,.13.06.13.13,0,.08-.05.17-.13.17l-2.7.05c-.08,0-.12-.08-.12-.16,0-.07.03-.14.11-.14.49,0,.91-.09.89-.8l-.06-3.53c-.01-.81-.07-1.04-.88-1.02-.08,0-.13-.08-.13-.16,0-.07.03-.12.12-.13.5,0,.89-.22,1.17-.38.17-.09.31-.17.41-.17.11,0,.17.12.18.49v.76c.01.1.02.14.06.14.03,0,.08-.07.16-.18Z"/>
					<path d="M212.78,345.48c.03,1.71-.92,3.49-2.69,3.52-1.91.03-2.82-1.53-2.85-3.14-.03-1.7.91-3.45,2.7-3.48,1.91-.03,2.8,1.5,2.83,3.1ZM211.78,346.03c-.03-1.6-.76-3.33-1.99-3.31-1.09.02-1.58,1.28-1.55,2.64.03,1.59.75,3.29,1.98,3.27,1.11-.02,1.58-1.26,1.56-2.6Z"/>
					<path d="M219.33,342.53c0,.07-.04.13-.13.13-.44,0-.8.17-1.08.96l-1.77,5.04c-.06.17-.11.23-.23.23-.06,0-.12-.04-.18-.18l-2.14-5.43c-.24-.43-.5-.52-.87-.51-.09,0-.13-.06-.14-.13,0-.08.05-.17.13-.17l2.7-.05c.08,0,.12.08.12.16,0,.07-.03.14-.11.14h-.2c-.32,0-.59.04-.58.34,0,.08.02.17.06.29l1.36,3.58c.07.18.11.26.16.26.04,0,.08-.09.14-.26l1.11-3.19c.06-.18.09-.33.08-.45,0-.5-.47-.58-.86-.58-.08,0-.11-.06-.11-.13,0-.08.04-.16.12-.16l2.27-.04c.08,0,.13.08.13.16Z"/>
					<path d="M224.13,345.84c.03,1.76-1.22,2.94-2.38,2.96-1.72.03-2.49-1.43-2.52-2.99-.03-1.74.95-3.6,2.44-3.63,1.57-.03,2.1,1.42,2.12,2.16,0,.52-.1.54-1.3.56h-.28s-2.01.04-2.01.04c-.22,0-.22.11-.21.22.03,1.87,1.14,2.81,2.16,2.79.79-.01,1.42-.66,1.69-2.11.01-.07.11-.09.16-.1.06-.01.12.03.14.09ZM220.05,344.39c0,.08.05.15.23.14l2.11-.04c.3,0,.38-.11.37-.42,0-.52-.49-1.49-1.31-1.47-.78.01-1.42,1.08-1.4,1.79Z"/>
					<path d="M230.92,348.12c0,.07-.03.13-.12.13-.5,0-.89.17-1.18.29-.17.07-.31.13-.41.13-.11,0-.17-.07-.18-.35v-.38c-.02-.1-.04-.14-.08-.14-.03,0-.11.06-.23.15-.33.25-.96.73-1.61.74-1.48.03-2.19-1.41-2.22-2.91-.03-1.77,1.08-3.64,2.71-3.67.37,0,.65.12.87.22.15.07.28.13.39.12.04,0,.06-.03.06-.07l-.03-1.74c-.01-.81-.07-1.04-.88-1.03-.08,0-.13-.08-.13-.16,0-.06.03-.12.12-.13.5,0,.89-.28,1.17-.47.17-.12.3-.21.41-.21.11,0,.17.12.18.49l.14,7.86c.01.81.07.97.88.96.08,0,.13.08.13.16ZM229.01,346.73l-.05-2.56c-.02-1.01-.78-1.72-1.48-1.71-1.09.02-1.71,1.38-1.69,2.73.02,1.35.61,2.75,1.93,2.73.49,0,1.29-.35,1.28-1.19Z"/>
					<path d="M239.04,346.99c.02,1.06-1.11,1.54-1.91,1.55-.9.02-1.79-.33-1.87-.61-.14-.48-.37-1.67-.38-2.16,0-.08.06-.13.14-.13.08,0,.14.05.16.12.53,1.75,1.38,2.5,1.99,2.49.59-.01.94-.45.93-.95-.01-.7-.61-1.16-1.47-1.79-1.29-.96-1.65-1.41-1.66-2.13-.02-.94,1.03-1.43,1.96-1.45.78-.01,1.53.29,1.59.55l.22,1.53c0,.06-.03.11-.08.13-.02,0-.04.01-.05.01-.07,0-.14-.05-.16-.13-.47-1.39-1.23-1.8-1.64-1.79-.61.01-.92.44-.91,1.01,0,.44.43.94,1.36,1.61.89.64,1.77,1.33,1.79,2.15Z"/>
					<path d="M241.62,342.33c-.17,0-.27.04-.26.34l.07,3.78c.01.86.21,1.3.73,1.29.44,0,.7-.57.84-.91.02-.04.06-.07.11-.07.08,0,.15.07.12.16-.11.46-.53,1.5-1.33,1.52-.76.01-1.33-.43-1.35-1.55l-.07-4.19c0-.33-.1-.34-.46-.33h-.4c-.19.01-.25-.07-.25-.17,0-.1.04-.18.25-.19,1.43-.03,1.4-1.14,1.39-1.77,0-.29.08-.31.19-.31.08,0,.12.09.12.27l.02,1.15c0,.37.06.62.42.62l1.25-.02c.23,0,.23.12.23.19,0,.08-.08.17-.31.17l-1.3.02Z"/>
					<path d="M249.37,344.83c.03,1.71-.92,3.49-2.69,3.52-1.91.03-2.82-1.53-2.85-3.14-.03-1.7.91-3.45,2.7-3.48,1.91-.03,2.81,1.5,2.83,3.1ZM248.37,345.38c-.03-1.6-.76-3.33-1.99-3.31-1.09.02-1.58,1.28-1.55,2.64.03,1.59.75,3.3,1.98,3.27,1.11-.02,1.58-1.26,1.56-2.6Z"/>
					<path d="M251.97,342.87c.36-.51.87-1.23,1.57-1.25.57,0,.67.4.68.57,0,.51-.31.6-.46.6-.1,0-.18-.05-.26-.11-.19-.13-.36-.19-.53-.19-.54,0-1.19.85-1.17,1.54l.05,3.01c.01.69.59.77.93.77.09,0,.13.06.13.13,0,.08-.05.17-.13.17l-2.7.05c-.08,0-.12-.08-.12-.16,0-.07.03-.14.11-.14.49,0,.91-.09.89-.8l-.06-3.53c-.01-.81-.07-1.04-.88-1.02-.08,0-.13-.08-.13-.16,0-.07.03-.12.12-.13.5,0,.89-.22,1.17-.38.17-.09.31-.17.41-.17.11,0,.17.12.18.49v.76c.01.1.02.14.06.14.03,0,.08-.07.16-.18Z"/>
					<path d="M260.77,341.79c0,.07-.04.13-.13.13-.44,0-.8.17-1.08.96l-1.82,5.15c-.45,1.04-1.27,2.29-2.86,2.31-.43,0-.6-.25-.6-.49,0-.26.19-.51.57-.51.37,0,.69.22.96.22.78-.01,1.41-.94,1.39-1.67,0-.21-.03-.43-.12-.67l-1.78-4.67c-.24-.43-.5-.52-.87-.51-.09,0-.13-.06-.13-.13,0-.08.05-.17.13-.17l2.7-.05c.08,0,.12.08.12.16,0,.07-.03.13-.11.14h-.2c-.32,0-.59.04-.58.34,0,.08.02.17.06.29l1.36,3.74c.04.1.06.14.09.14.04,0,.06-.06.09-.14l1.17-3.35c.06-.18.09-.33.08-.45,0-.5-.47-.59-.86-.58-.08,0-.11-.06-.11-.13,0-.08.04-.16.12-.16l2.27-.04c.08,0,.13.08.13.16Z"/>
					<path d="M263.09,341.95c-.17,0-.27.04-.26.34l.07,3.78c.01.86.21,1.3.73,1.29.44,0,.7-.57.84-.91.02-.04.06-.07.11-.07.08,0,.15.07.12.16-.11.46-.53,1.5-1.33,1.52-.76.01-1.33-.43-1.35-1.55l-.07-4.19c0-.33-.1-.34-.46-.33h-.4c-.19,0-.25-.07-.25-.17,0-.1.04-.18.25-.19,1.43-.03,1.4-1.14,1.39-1.77,0-.29.08-.31.19-.31.08,0,.12.09.12.27l.02,1.15c0,.37.06.62.42.62l1.25-.02c.23,0,.23.12.23.19,0,.08-.08.17-.31.17l-1.3.02Z"/>
					<path d="M270.21,345.02c.03,1.76-1.22,2.94-2.38,2.96-1.72.03-2.49-1.43-2.52-2.99-.03-1.74.95-3.61,2.44-3.63,1.57-.03,2.1,1.42,2.12,2.16,0,.52-.1.54-1.3.56h-.28s-2.01.04-2.01.04c-.22,0-.22.11-.21.22.03,1.87,1.14,2.81,2.16,2.79.79-.01,1.42-.66,1.69-2.11.01-.07.11-.09.16-.1.06-.01.12.03.14.09ZM266.13,343.57c0,.08.05.15.23.14l2.11-.04c.3,0,.38-.11.37-.42,0-.52-.49-1.49-1.31-1.47-.78.01-1.42,1.08-1.4,1.79Z"/>
					<path d="M273.52,347.57c0,.08-.05.17-.13.17l-2.7.05c-.08,0-.12-.08-.12-.16,0-.07.03-.14.11-.14.49,0,.91-.09.89-.8l-.12-6.79c-.01-.81-.07-1.04-.89-1.02-.08,0-.13-.08-.13-.16,0-.07.03-.13.12-.13.5,0,.89-.27,1.17-.47.17-.12.3-.21.41-.21.11,0,.18.12.18.49l.15,8.28c.01.69.59.77.93.77.09,0,.13.06.13.13Z"/>
					<path d="M276.64,347.51c0,.08-.05.17-.13.17l-2.7.05c-.08,0-.12-.08-.12-.16,0-.07.03-.14.11-.14.49,0,.91-.09.89-.8l-.12-6.79c-.01-.81-.07-1.04-.89-1.02-.08,0-.13-.08-.13-.16,0-.07.03-.13.12-.13.5,0,.88-.27,1.17-.47.17-.12.3-.21.41-.21.11,0,.18.12.18.49l.15,8.28c.01.69.59.77.93.76.09,0,.13.06.13.13Z"/>
					<path d="M279.84,347.46c0,.08-.05.17-.13.17l-2.7.05c-.08,0-.12-.08-.12-.16,0-.07.03-.14.11-.14.49,0,.91-.09.89-.8l-.06-3.53c-.01-.82-.07-1.04-.89-1.03-.08,0-.13-.08-.13-.16,0-.06.03-.12.12-.12.5,0,.89-.22,1.17-.38.17-.09.31-.17.41-.17.11,0,.18.12.18.49l.09,4.89c.01.69.59.77.93.77.09,0,.13.06.13.13ZM277.31,339.42c0-.35.26-.69.63-.7.36,0,.64.33.65.68,0,.35-.26.69-.62.7-.37,0-.64-.32-.65-.67Z"/>
					<path d="M286.65,347.34c0,.08-.05.17-.13.17l-2.7.05c-.08,0-.12-.08-.12-.16,0-.07.03-.14.11-.14.49,0,.91-.09.89-.8l-.04-2.13c-.03-1.79-.27-2.52-1.02-2.5-.18,0-1.73.26-1.69,2.45l.04,2.23c.01.69.59.77.93.77.09,0,.13.06.13.13,0,.08-.05.17-.13.17l-2.7.05c-.08,0-.12-.08-.12-.16,0-.07.03-.14.11-.14.49,0,.91-.09.89-.8l-.06-3.53c-.01-.81-.07-1.04-.88-1.02-.08,0-.13-.08-.13-.16,0-.07.03-.12.12-.13.5,0,.89-.22,1.17-.38.17-.09.31-.17.41-.17.11,0,.17.12.18.49v.71c.01.08.01.13.07.13.05,0,.15-.12.32-.29.39-.4,1.08-1.07,1.74-1.08,1.42-.02,1.5,1.7,1.52,2.82l.05,2.54c.01.69.59.77.93.77.09,0,.13.06.14.13Z"/>
					<path d="M289.78,346.83c1.3-.02,2.86.02,2.89,1.51.02,1.28-1.33,2.94-3.56,2.98-1.08.02-2.4-.47-2.42-1.72-.02-.86,1.01-1.5,1.67-1.77.07-.03.1-.06.1-.09,0-.04-.1-.06-.23-.08-.66-.09-1.1-.43-1.11-.99,0-.31.42-.86,1.15-1.14.11-.04.17-.07.16-.1,0-.02-.04-.05-.12-.08-.81-.36-1.2-1.18-1.21-2.01-.02-1.16.9-2.38,2.17-2.41.4,0,.79.07,1.14.25.09.05.16.07.21.07.06,0,.11-.03.14-.08.24-.37.53-.73,1-.74.32,0,.59.14.6.47,0,.32-.21.41-.44.42-.18,0-.35-.04-.48-.08-.06-.01-.1-.03-.14-.03-.02,0-.05,0-.07,0-.16,0-.31.1-.31.26,0,.07.04.16.12.27.29.4.45.88.46,1.38.02,1.15-.75,2.41-2.05,2.43-.96.02-1.45.51-1.44.69,0,.57.83.62,1.77.6ZM292.08,348.76c-.02-.97-1.1-.99-2.17-1.01h-.51c-.94-.03-1.72,1-1.71,1.66.02.91.88,1.39,1.84,1.38,1.37-.02,2.56-1.16,2.55-2.03ZM289.45,345.23c.89-.02,1.19-.81,1.17-1.73-.02-1.1-.45-2.28-1.44-2.26-.87.02-1.22.84-1.2,1.75.02,1.14.46,2.26,1.47,2.25Z"/>
					<path d="M138.49,365.21c-.12.4-.62,1.17-1.28,1.18-.57.01-.75-.26-.76-.71,0-.22,0-.23-.13-.12-.69.62-1.38.87-1.9.88-.83.01-1.38-.64-1.39-1.4-.02-1.22,2.05-1.93,2.92-2.33.41-.19.44-.3.43-.56v-.36c-.02-.54-.33-1.62-1.3-1.6-.6.01-.73.5-.81.96-.07.45-.26.67-.57.68-.4,0-.51-.47-.39-.73.33-.67,1.23-1.26,2.24-1.28.89-.02,1.69.47,1.72,1.91l.05,2.95c.01.71.11.92.39.91.19,0,.43-.23.54-.44.03-.07.08-.12.16-.11.06.01.09.07.06.17ZM136.43,364.38l-.02-1.26c0-.1-.02-.18-.24-.1-.58.21-2.08.78-2.06,1.81.01.72.47,1,.93.99.76-.01,1.41-.66,1.4-1.44Z"/>
					<path d="M145.22,365.96c0,.08-.05.17-.13.17l-2.7.05c-.08,0-.12-.08-.12-.16,0-.07.03-.14.11-.14.49,0,.91-.09.89-.8l-.04-2.13c-.03-1.79-.27-2.52-1.02-2.5-.18,0-1.73.26-1.69,2.45l.04,2.23c.01.69.59.77.93.77.09,0,.13.06.13.13,0,.08-.05.17-.13.17l-2.7.05c-.08,0-.12-.08-.12-.16,0-.07.03-.14.11-.14.49,0,.91-.09.89-.8l-.06-3.53c-.01-.81-.07-1.04-.89-1.02-.08,0-.13-.08-.13-.16,0-.07.03-.12.12-.13.5,0,.89-.22,1.17-.38.17-.09.31-.17.41-.17.11,0,.17.12.18.49v.71c.01.08.01.13.07.13.05,0,.15-.12.32-.29.39-.4,1.08-1.07,1.74-1.08,1.42-.03,1.5,1.7,1.52,2.82l.05,2.54c.01.69.59.77.93.77.09,0,.13.06.14.13Z"/>
					<path d="M151.63,365.64c0,.07-.03.12-.12.13-.5,0-.89.17-1.18.29-.17.07-.31.13-.41.13-.11,0-.17-.07-.18-.35v-.38c-.02-.1-.04-.14-.08-.14-.03,0-.11.06-.23.15-.33.25-.96.73-1.61.74-1.48.03-2.19-1.41-2.22-2.91-.03-1.76,1.08-3.64,2.71-3.67.37,0,.65.12.87.22.15.07.28.13.39.12.04,0,.06-.03.06-.07l-.03-1.74c-.01-.81-.07-1.04-.88-1.02-.08,0-.13-.08-.13-.16,0-.06.03-.12.12-.13.5,0,.89-.27,1.17-.47.17-.12.3-.21.41-.21.11,0,.17.12.18.49l.14,7.86c.01.81.07.97.88.96.08,0,.13.08.13.16ZM149.72,364.25l-.05-2.56c-.02-1.01-.78-1.72-1.48-1.71-1.09.02-1.71,1.38-1.69,2.73.02,1.35.61,2.75,1.93,2.73.49,0,1.29-.35,1.28-1.19Z"/>
					<path d="M161.06,362.5c.03,1.71-.92,3.49-2.69,3.52-1.9.03-2.82-1.53-2.84-3.14-.03-1.69.91-3.45,2.7-3.48,1.91-.03,2.8,1.5,2.83,3.1ZM160.07,363.05c-.03-1.59-.76-3.33-1.99-3.31-1.09.02-1.57,1.28-1.55,2.64.03,1.58.75,3.29,1.98,3.27,1.11-.02,1.58-1.26,1.56-2.6Z"/>
					<path d="M167.62,359.55c0,.07-.04.13-.13.13-.44,0-.8.17-1.08.96l-1.77,5.04c-.06.17-.11.23-.23.23-.06,0-.12-.04-.18-.18l-2.14-5.43c-.24-.43-.5-.52-.87-.51-.09,0-.13-.06-.13-.13,0-.08.05-.17.13-.17l2.7-.05c.08,0,.12.08.12.16,0,.07-.03.14-.11.14h-.2c-.32,0-.58.04-.58.34,0,.08.02.17.06.29l1.36,3.57c.07.18.11.26.16.26.04,0,.08-.09.14-.26l1.11-3.19c.06-.18.09-.33.08-.45,0-.5-.47-.59-.86-.58-.08,0-.11-.06-.11-.13,0-.08.04-.16.12-.16l2.27-.04c.08,0,.13.08.13.16Z"/>
					<path d="M172.42,362.87c.03,1.76-1.22,2.94-2.38,2.96-1.71.03-2.49-1.43-2.52-2.99-.03-1.74.95-3.6,2.44-3.63,1.57-.03,2.1,1.43,2.12,2.16,0,.52-.1.54-1.3.56h-.28s-2.01.04-2.01.04c-.22,0-.22.11-.21.22.03,1.87,1.14,2.81,2.16,2.79.79-.01,1.42-.66,1.69-2.11.01-.07.11-.09.16-.1.06-.01.12.03.14.09ZM168.34,361.42c0,.08.05.15.23.14l2.11-.04c.3,0,.38-.11.37-.42,0-.52-.49-1.49-1.31-1.47-.78.01-1.42,1.09-1.4,1.79Z"/>
					<path d="M174.85,360.35c.36-.51.87-1.23,1.56-1.25.57,0,.67.4.68.57,0,.51-.31.6-.46.6-.1,0-.18-.05-.26-.11-.19-.13-.36-.19-.53-.19-.54,0-1.19.85-1.17,1.54l.05,3.01c.01.69.59.77.93.77.09,0,.13.06.13.13,0,.08-.05.17-.13.17l-2.7.05c-.08,0-.12-.08-.12-.16,0-.07.03-.14.11-.14.49,0,.91-.09.89-.8l-.06-3.53c-.01-.81-.07-1.04-.88-1.03-.08,0-.13-.08-.13-.16,0-.07.03-.13.12-.13.5,0,.89-.22,1.17-.38.17-.09.31-.17.41-.17.11,0,.17.12.18.49v.76c.01.1.02.14.06.14.03,0,.08-.07.16-.18Z"/>
					<path d="M183.72,359.27c0,.07-.04.13-.13.13-.44,0-.8.17-1.08.96l-1.77,5.04c-.06.17-.11.23-.23.23-.06,0-.12-.04-.18-.18l-2.14-5.43c-.24-.43-.5-.52-.87-.51-.09,0-.13-.06-.13-.13,0-.08.05-.17.13-.17l2.7-.05c.08,0,.12.08.12.16,0,.07-.03.14-.11.14h-.2c-.32,0-.59.04-.58.34,0,.08.02.17.06.29l1.36,3.57c.07.18.11.26.16.26.04,0,.08-.09.14-.26l1.11-3.19c.06-.18.09-.33.08-.45,0-.5-.47-.59-.86-.58-.08,0-.11-.06-.11-.13,0-.08.04-.16.12-.16l2.27-.04c.08,0,.13.08.13.16Z"/>
					<path d="M186.96,365.21c0,.08-.05.17-.13.17l-2.7.05c-.08,0-.12-.08-.12-.16,0-.07.03-.14.11-.14.49,0,.91-.09.89-.8l-.06-3.53c-.01-.82-.07-1.04-.89-1.02-.08,0-.13-.08-.13-.16,0-.06.03-.12.12-.13.5,0,.89-.22,1.17-.38.17-.09.31-.17.41-.17.11,0,.18.12.18.49l.09,4.89c.01.69.59.77.93.77.09,0,.13.06.13.13ZM184.43,357.18c0-.35.26-.69.63-.7s.64.32.65.67c0,.35-.26.69-.62.7s-.64-.32-.65-.67Z"/>
					<path d="M192.25,362.52c.03,1.76-1.22,2.94-2.38,2.96-1.71.03-2.49-1.43-2.52-2.99-.03-1.74.95-3.6,2.44-3.63,1.57-.03,2.1,1.42,2.12,2.16,0,.52-.1.54-1.3.56h-.28s-2.01.04-2.01.04c-.21,0-.21.11-.21.22.03,1.87,1.13,2.81,2.16,2.79.79-.01,1.42-.66,1.69-2.11.01-.07.11-.09.16-.1.06-.01.12.03.14.09ZM188.18,361.06c0,.08.05.15.23.14l2.11-.04c.3,0,.38-.11.37-.42,0-.52-.49-1.49-1.31-1.47-.78.01-1.42,1.08-1.4,1.79Z"/>
					<path d="M202,358.94c0,.07-.04.13-.13.13-.44,0-.84.17-1.09.96l-1.6,5.08c-.04.1-.07.18-.2.18-.08,0-.12-.04-.18-.17l-1.56-4.09s-.03-.06-.05-.06c-.02,0-.04.02-.05.06l-1.41,4.14c-.03.1-.07.18-.2.18-.08,0-.12-.04-.18-.17l-2.14-5.43c-.24-.43-.5-.52-.87-.51-.09,0-.13-.06-.13-.13,0-.08.05-.17.13-.17l2.63-.05c.08,0,.12.08.12.16,0,.07-.03.14-.11.14h-.19c-.3,0-.53.04-.52.31,0,.08.02.18.07.31l1.36,3.58c.07.18.11.26.16.26.04,0,.07-.09.14-.26l.94-2.87s.03-.09.03-.13-.01-.09-.03-.13l-.21-.56c-.24-.43-.44-.52-.81-.51-.09,0-.13-.06-.13-.13,0-.08.05-.17.13-.17l2.63-.05c.08,0,.12.08.12.16,0,.07-.03.14-.11.14h-.2c-.32,0-.59.04-.58.34,0,.08.02.17.06.29l1.3,3.58c.07.18.11.26.16.26.04,0,.07-.09.14-.26l.91-3.18c.05-.18.09-.33.08-.45,0-.5-.47-.58-.86-.58-.07,0-.11-.06-.11-.13,0-.08.04-.16.12-.16l2.27-.04c.08,0,.13.08.13.16Z"/>
					<path d="M206.65,358.26c-.01-.82.84-3.07,2.18-3.1.38,0,.69.12.7.52,0,.33-.17.42-.4.43-.18,0-.39-.05-.57-.1-.14-.04-.26-.07-.33-.07-.52,0-.73.44-.7,1.97v.57c.01.11.01.19.21.19l1.03-.02c.19,0,.24.06.24.15,0,.18-.1.21-.23.21l-1.03.02c-.18,0-.19.11-.19.22l.08,4.68c.01.69.59.77.93.76.09,0,.13.06.13.13,0,.08-.05.17-.13.17l-2.7.05c-.08,0-.12-.08-.12-.16,0-.07.03-.14.11-.14.49,0,.9-.09.89-.8l-.08-4.68c0-.11-.01-.22-.2-.21h-.35c-.17,0-.28,0-.28-.22,0-.1.06-.13.19-.13h.44c.18-.01.19-.1.19-.2v-.24Z"/>
					<path d="M214.23,362.13c.03,1.76-1.22,2.94-2.38,2.96-1.72.03-2.49-1.43-2.52-2.99-.03-1.74.95-3.6,2.44-3.63,1.57-.03,2.1,1.42,2.12,2.16,0,.52-.1.54-1.3.56h-.28s-2.01.04-2.01.04c-.22,0-.22.11-.21.22.03,1.87,1.14,2.81,2.16,2.79.79-.01,1.42-.66,1.69-2.11.01-.07.11-.09.16-.1.06-.01.12.03.14.09ZM210.16,360.67c0,.08.05.15.23.14l2.11-.04c.3,0,.38-.11.37-.42,0-.52-.49-1.49-1.31-1.47-.78.01-1.42,1.08-1.4,1.79Z"/>
					<path d="M220.34,363.76c-.12.4-.62,1.17-1.28,1.18-.57.01-.75-.26-.76-.71,0-.22,0-.23-.13-.12-.69.62-1.38.87-1.9.88-.83.01-1.38-.64-1.39-1.4-.02-1.22,2.05-1.93,2.92-2.33.41-.19.44-.3.43-.56v-.36c-.02-.54-.33-1.62-1.3-1.6-.6.01-.73.5-.81.96-.07.45-.26.67-.57.68-.4,0-.51-.47-.39-.73.33-.67,1.23-1.26,2.24-1.28.89-.02,1.69.47,1.72,1.91l.05,2.95c.01.71.11.92.39.91.19,0,.43-.23.54-.44.03-.07.08-.12.16-.11.06.01.09.07.06.17ZM218.28,362.93l-.02-1.26c0-.1-.02-.18-.24-.1-.58.21-2.08.78-2.06,1.81.01.72.47,1,.93.99.76-.01,1.41-.66,1.4-1.44Z"/>
					<path d="M222.38,358.78c-.17,0-.27.04-.26.34l.07,3.78c.01.86.21,1.3.73,1.29.44,0,.7-.57.84-.91.02-.04.06-.07.11-.07.08,0,.15.08.12.16-.11.46-.53,1.5-1.33,1.52-.76.01-1.33-.43-1.35-1.55l-.07-4.19c0-.33-.1-.34-.46-.33h-.4c-.19.01-.25-.07-.25-.17,0-.1.04-.18.25-.19,1.43-.03,1.4-1.14,1.39-1.77,0-.29.08-.31.19-.31.08,0,.12.09.12.27l.02,1.15c0,.37.06.62.42.62l1.25-.02c.23,0,.23.12.23.19,0,.08-.08.17-.31.17l-1.3.02Z"/>
					<path d="M230.58,364.24c0,.06-.03.12-.12.13-.5,0-.89.17-1.18.29-.17.07-.31.13-.41.13-.11,0-.17-.07-.18-.35l-.02-.89c0-.09-.02-.11-.06-.11-.04,0-.13.1-.26.24-.36.39-1.03,1.12-1.79,1.14-1.41.02-1.5-1.69-1.52-2.81l-.04-2.2c-.01-.81-.08-1.02-.89-1-.08,0-.13-.08-.13-.16,0-.06.03-.12.12-.13.5,0,.89-.12,1.18-.2.17-.05.31-.09.41-.09.11,0,.18.12.18.49l.05,2.85c.03,1.72.22,2.52,1.03,2.51.96-.02,1.7-1.28,1.68-2.14l-.04-2.24c-.01-.81-.07-.97-.88-.96-.08,0-.13-.08-.13-.16,0-.06.03-.12.12-.13.5,0,.89-.12,1.18-.2.17-.05.31-.08.41-.09.11,0,.17.12.18.49l.08,4.63c.01.67.13.81.88.79.08,0,.13.08.13.16Z"/>
					<path d="M232.89,359.32c.36-.51.87-1.23,1.57-1.25.57,0,.67.4.68.57,0,.51-.31.6-.46.6-.1,0-.18-.05-.26-.11-.19-.13-.36-.19-.53-.19-.54,0-1.19.85-1.17,1.54l.05,3.01c.01.69.59.77.93.77.09,0,.13.06.13.13,0,.08-.05.17-.13.17l-2.7.05c-.08,0-.12-.08-.12-.16,0-.07.03-.14.11-.14.49,0,.9-.09.89-.8l-.06-3.53c-.01-.81-.07-1.04-.88-1.02-.08,0-.13-.08-.13-.16,0-.07.03-.13.12-.13.5,0,.89-.22,1.17-.38.17-.09.31-.17.41-.17.11,0,.17.12.18.49v.76c.01.1.02.14.06.14.03,0,.08-.07.16-.18Z"/>
					<path d="M240.3,361.66c.03,1.76-1.22,2.94-2.38,2.96-1.71.03-2.49-1.43-2.52-2.99-.03-1.74.95-3.6,2.44-3.63,1.57-.03,2.1,1.42,2.12,2.16,0,.52-.1.54-1.3.56h-.28s-2.01.04-2.01.04c-.22,0-.22.11-.21.22.03,1.87,1.14,2.81,2.16,2.79.79-.01,1.42-.66,1.69-2.11.01-.07.11-.09.16-.1.06-.01.12.03.14.09ZM236.23,360.21c0,.08.05.15.23.14l2.11-.04c.3,0,.38-.11.37-.42,0-.52-.49-1.49-1.31-1.47-.78.01-1.42,1.08-1.4,1.79Z"/>
				</g>
			</g>
			<g data-name="label">
				<path d="M128.35,308.75c-1.92.33-3.82.4-5.89.48-2.31.1-4.63.09-6.95.01-2.78-.06-5.71-.05-8.52-.17-2.83-.07-5.63-.21-8.45-.22-4.45.02-8.86.08-13.16-.71-2.53-.47-4.94-1.42-6.81-2.86-1.52-1.26-2.81-2.76-3.37-4.44-.77-2.3-.36-4.87,1.18-6.95,1.06-1.41,2.62-2.59,4.34-3.51,1.97-1.03,4.37-1.63,6.69-1.98,2.29-.32,4.58-.36,6.87-.52,3.24-.25,6.44-.15,9.69-.09,1.22,0,2.43.05,3.64.11,4.49.19,8.98.25,13.5.32,3.36.06,6.87.45,9.95,1.48,5.43,1.85,9.99,5.24,9.16,10.17-.3,1.8-1.09,3.56-2.58,4.96-.92.89-2.05,1.79-3.29,2.36-1.78.87-3.88,1.23-5.98,1.54h-.01Z"/>
				<g>
					<path d="M82.61,294.26h3.68c1.47.01,2.08.87,2.08,1.72,0,.78-.44,1.56-1.29,1.85l1.69,2.83h-2.5s-1.26-2.4-1.26-2.4h-.27s0,2.39,0,2.39h-2.12s.02-6.4.02-6.4ZM86.27,296.7c0-.2-.15-.4-.47-.4h-1.07s0,.79,0,.79h1.07c.32,0,.47-.19.47-.39Z"/>
					<path d="M89.44,294.28h5.24s0,2.05,0,2.05h-3.12s0,.54,0,.54h1.76s0,1.17,0,1.17h-1.76s0,.6,0,.6h3.16s0,2.04,0,2.04h-5.28s.02-6.41.02-6.41Z"/>
					<path d="M95.37,298.64h1.91c-.04.21,0,.37.07.48.2.29.68.32.98.32.47,0,.81-.13.81-.46,0-.29-.33-.43-1.06-.52l-.74-.09c-1.06-.13-1.87-.76-1.87-2,0-1.16,1.09-2.19,2.85-2.19,1.57,0,2.72.88,2.72,2.04h-1.83c.09-.65-.47-.74-.83-.74-.54,0-.78.16-.78.43,0,.27.24.43.87.52l.79.11c1.2.17,1.99.81,1.99,2.01,0,1.52-1.26,2.26-3,2.26-1.86,0-2.92-.85-2.88-2.18Z"/>
					<path d="M102.09,294.31h5.24s0,2.05,0,2.05h-3.12s0,.54,0,.54h1.76s0,1.18,0,1.18h-1.76s0,.6,0,.6h3.16s0,2.04,0,2.04h-5.28s.02-6.41.02-6.41Z"/>
					<path d="M110.19,294.33h2.32s2.3,6.4,2.3,6.4h-2.5s-.29-.92-.29-.92h-1.83s-.3.9-.3.9h-2.01s2.3-6.39,2.3-6.39ZM111.62,298.56l-.48-1.56h-.04l-.51,1.56h1.03Z"/>
					<path d="M115.41,294.35h3.68c1.47.01,2.08.87,2.08,1.73,0,.78-.44,1.56-1.29,1.85l1.69,2.83h-2.5s-1.26-2.4-1.26-2.4h-.27s0,2.39,0,2.39h-2.12s.02-6.4.02-6.4ZM119.07,296.79c0-.2-.15-.4-.47-.4h-1.07s0,.79,0,.79h1.07c.32,0,.47-.19.47-.39Z"/>
					<path d="M121.73,297.58c0-2.19,1.58-3.34,3.17-3.33,1.41,0,2.79.94,2.99,2.73h-2c-.12-.56-.52-.78-.96-.78-.53,0-.95.42-.95,1.17v.42c0,.77.41,1.17.96,1.17.43,0,.9-.22.97-.89h1.98c-.15,1.85-1.56,2.83-3.01,2.83-1.58,0-3.16-1.14-3.15-3.31Z"/>
					<path d="M132.62,298.21h-1.85s0,2.57,0,2.57h-2.12s.02-6.4.02-6.4h2.12s0,2.56,0,2.56h1.85s0-2.55,0-2.55h2.12s-.02,6.4-.02,6.4h-2.12s0-2.58,0-2.58Z"/>
				</g>
			</g>
		</g>
		<g id="major">
			<g data-name="item" data-cursor="❓" data-cursor-attach="#p">
				<path d="M276.32,115.42c1.8,13.35,15.65,23-70.24,33.73-40.88,5.11-78.06,12.24-79.69-10.07-1.75-23.95-11.15-22.26,72.77-34.5,40.76-5.95,73.56-15.8,77.17,10.84Z"/>
				<g>
					<path d="M147.87,127.81c.11-.01.25-.02.27.11.02.14-.07.17-.2.19l-1.25.14c-.42.05-.75-.02-.99-.2-.32-.23-3.12-3.49-3.13-3.65,0-.09.03-.11.63-.17,1.35-.15,1.94-1.36,1.81-2.51-.13-1.2-1.06-2.24-2.48-2.08-.49.05-.87.15-.8.8l.78,7.18c.08.69.72.71,1.09.67.1-.01.15.05.16.11,0,.08-.04.17-.13.18l-2.98.32c-.08,0-.14-.07-.15-.15,0-.07.02-.14.11-.15.54-.06.99-.18.91-.89l-.78-7.18c-.08-.69-.72-.71-1.09-.67-.1.01-.15-.05-.16-.12,0-.08.04-.17.13-.18l3.33-.36c1.88-.21,3.01.97,3.15,2.27.13,1.15-.52,2.4-1.94,2.86-.13.04-.17.07-.16.13,0,.04.03.08.08.15l1.47,1.79c.39.47,1.31,1.51,2.25,1.41h.07Z"/>
					<path d="M152.59,124.82c.19,1.75-.94,3.04-2.1,3.17-1.71.19-2.61-1.2-2.78-2.75-.19-1.73.62-3.68,2.1-3.84,1.56-.17,2.23,1.23,2.31,1.96.06.52-.05.54-1.24.67l-.28.03-2,.22c-.21.02-.21.12-.19.24.2,1.85,1.38,2.7,2.4,2.58.79-.09,1.36-.78,1.49-2.25,0-.07.1-.1.15-.11.06-.02.12.02.14.08ZM148.4,123.74c0,.08.06.14.25.12l2.1-.23c.3-.03.37-.14.33-.46-.06-.52-.62-1.44-1.44-1.35-.77.08-1.31,1.21-1.24,1.91Z"/>
					<path d="M161.97,120.37c0,.07-.02.13-.12.14-.44.05-.82.24-1,1.05l-1.13,5.21c-.03.1-.05.19-.18.2-.08,0-.13-.03-.19-.16l-1.92-3.93s-.04-.05-.06-.05-.03.02-.04.06l-1.03,4.25c-.03.1-.05.19-.18.2-.07,0-.13-.03-.19-.16l-2.62-5.21c-.28-.41-.55-.47-.92-.43-.09,0-.14-.05-.14-.12,0-.08.03-.17.11-.18l2.62-.29c.08,0,.13.07.13.15,0,.07-.02.14-.09.15l-.19.02c-.3.03-.53.08-.5.36,0,.08.04.18.1.31l1.68,3.44c.09.18.13.25.18.25.04,0,.07-.1.12-.28l.68-2.95s.02-.09.01-.13c0-.04-.02-.09-.04-.13l-.26-.54c-.28-.4-.48-.48-.85-.44-.09,0-.14-.05-.15-.12,0-.08.04-.17.11-.18l2.62-.29c.08,0,.13.07.14.15,0,.07-.02.14-.09.15l-.2.02c-.32.04-.58.09-.55.38,0,.08.04.17.09.28l1.62,3.44c.08.18.13.25.18.25.04,0,.07-.1.12-.28l.62-3.25c.03-.19.05-.34.04-.46-.05-.5-.52-.54-.91-.5-.07,0-.11-.05-.12-.12,0-.08.03-.16.1-.17l2.26-.25c.08,0,.14.07.15.15Z"/>
					<path d="M167.63,122.6c.18,1.7-.6,3.56-2.36,3.75-1.89.21-2.94-1.26-3.12-2.87-.18-1.69.6-3.52,2.37-3.71,1.9-.21,2.93,1.24,3.1,2.83ZM166.69,123.24c-.17-1.59-1.06-3.25-2.28-3.11-1.09.12-1.45,1.42-1.3,2.77.17,1.58,1.04,3.21,2.27,3.08,1.1-.12,1.46-1.4,1.32-2.73Z"/>
					<path d="M170.04,120.42c.31-.54.75-1.31,1.45-1.38.56-.06.71.34.73.51.06.51-.25.62-.4.64-.1.01-.18-.03-.27-.09-.2-.12-.38-.16-.54-.14-.54.06-1.1.96-1.03,1.64l.33,2.99c.08.69.66.71.99.68.09,0,.14.05.15.12,0,.08-.03.17-.11.18l-2.68.29c-.08,0-.13-.07-.14-.15,0-.07.02-.14.09-.15.49-.05.89-.17.82-.88l-.38-3.51c-.09-.81-.17-1.03-.97-.94-.08,0-.14-.07-.15-.14,0-.06.02-.13.11-.14.5-.05.86-.3,1.13-.49.16-.11.29-.2.39-.21.11-.01.18.11.22.47l.08.76c.01.1.02.14.06.13.03,0,.08-.08.14-.2Z"/>
					<path d="M179.45,124.5c.02.17-.09.18-.18.19l-1.34.15c-.28.03-.51,0-.67-.11-.17-.11-.38-.31-.66-.62l-1.87-2.1c-.15-.17-.24-.22-.29-.21-.03,0-.06.02-.04.13l.24,2.19c.08.69.66.71,1,.68.09-.01.14.05.15.12,0,.08-.03.17-.11.18l-2.68.29c-.08,0-.13-.07-.14-.15,0-.07.02-.14.09-.15.49-.05.89-.17.82-.88l-.74-6.75c-.09-.81-.17-1.03-.98-.94-.08,0-.14-.07-.15-.14,0-.06.02-.13.1-.14.5-.05.86-.35,1.13-.58.16-.13.28-.24.39-.25.11-.01.19.1.23.47l.59,5.45c.01.09.04.1.08.1.26-.03,1.61-1.88,1.57-2.2-.02-.15-.17-.23-.53-.2-.19.02-.26-.02-.27-.14-.01-.1.09-.13.28-.15l2.53-.28c.2-.02.3-.03.31.07.02.14-.05.19-.25.22-1.31.14-1.54.49-2.25,1.52l-.49.71c-.06.08-.08.14-.07.21.01.09.08.18.2.3l2.07,2.21c.36.39,1.06.78,1.6.72.25-.03.31-.02.33.09Z"/>
					<path d="M188.5,120.33c.18,1.7-.6,3.56-2.36,3.75-1.89.21-2.94-1.26-3.12-2.87-.18-1.69.6-3.52,2.37-3.71,1.9-.21,2.93,1.24,3.1,2.83ZM187.55,120.97c-.17-1.59-1.06-3.25-2.28-3.11-1.09.12-1.45,1.42-1.3,2.77.17,1.58,1.04,3.21,2.27,3.08,1.1-.12,1.46-1.4,1.32-2.73Z"/>
					<path d="M189.62,116.75c-.09-.81.56-3.13,1.89-3.28.38-.04.7.06.75.45.04.32-.13.44-.36.46-.18.02-.39-.02-.58-.05-.14-.02-.26-.04-.34-.04-.51.06-.68.5-.52,2.03l.06.56c.01.11.02.19.21.17l1.02-.11c.19-.02.24.04.25.13.02.18-.08.21-.21.23l-1.02.11c-.18.02-.18.13-.17.23l.51,4.65c.07.69.66.71.99.68.09-.01.14.05.15.12,0,.08-.04.17-.11.18l-2.69.29c-.08,0-.13-.07-.14-.15,0-.07.02-.14.09-.15.49-.05.89-.17.81-.88l-.51-4.65c-.01-.11-.03-.21-.22-.19l-.35.04c-.17.02-.28.03-.3-.2-.01-.1.05-.13.17-.15l.44-.05c.18-.02.18-.11.17-.21l-.03-.24Z"/>
					<path d="M201.2,119.53c.19,1.74-.95,3.02-2.12,3.15-1.68.18-2.63-1.14-2.79-2.65-.19-1.75.67-3.77,2.69-3.99.88-.1,1.36.25,1.4.65.03.25-.16.61-.43.64-.12.01-.25-.04-.37-.15-.33-.31-.75-.58-1.23-.53-.97.11-1.42,1.47-1.28,2.78.14,1.3.87,2.54,2.27,2.38.75-.08,1.43-.77,1.57-2.26,0-.07.12-.11.16-.11.06,0,.12.03.13.09Z"/>
					<path d="M207.33,118.27c.18,1.7-.6,3.56-2.36,3.75-1.89.21-2.94-1.26-3.12-2.87-.18-1.69.6-3.52,2.37-3.71,1.9-.21,2.93,1.24,3.1,2.83ZM206.39,118.91c-.17-1.59-1.06-3.25-2.28-3.11-1.09.12-1.45,1.42-1.3,2.77.17,1.58,1.04,3.21,2.27,3.08,1.1-.12,1.46-1.4,1.32-2.73Z"/>
					<path d="M211.04,121.06c0,.08-.03.17-.11.18l-2.68.29c-.08,0-.13-.07-.14-.15,0-.07.02-.14.09-.15.49-.05.89-.17.82-.88l-.74-6.75c-.09-.81-.17-1.03-.98-.94-.08,0-.14-.07-.15-.15,0-.07.02-.13.1-.14.5-.05.86-.35,1.12-.57.16-.13.28-.24.39-.25.11-.01.19.1.23.47l.9,8.23c.08.69.66.71,1,.68.09,0,.14.05.15.12Z"/>
					<path d="M216.63,117.26c.18,1.7-.6,3.56-2.36,3.75-1.89.21-2.94-1.26-3.12-2.87-.18-1.69.6-3.52,2.37-3.71,1.9-.21,2.93,1.24,3.1,2.83ZM215.69,117.9c-.17-1.59-1.06-3.25-2.28-3.11-1.09.12-1.45,1.42-1.3,2.77.17,1.58,1.04,3.21,2.27,3.08,1.1-.12,1.46-1.4,1.32-2.73Z"/>
					<path d="M223.82,119.46c0,.06-.02.13-.1.14-.5.05-.87.25-1.15.4-.17.09-.29.16-.4.17-.11.01-.18-.05-.21-.33l-.1-.89c0-.09-.03-.11-.06-.11-.04,0-.12.11-.23.26-.32.42-.92,1.21-1.68,1.3-1.4.15-1.64-1.55-1.76-2.66l-.24-2.18c-.09-.81-.17-1.01-.97-.92-.08,0-.14-.07-.15-.15,0-.06.02-.13.11-.14.5-.05.88-.2,1.16-.3.17-.06.3-.11.4-.12.11-.01.19.11.23.47l.31,2.83c.19,1.71.45,2.49,1.25,2.4.95-.1,1.57-1.43,1.48-2.28l-.24-2.23c-.09-.81-.16-.96-.97-.87-.08,0-.14-.07-.15-.15,0-.06.02-.13.11-.14.5-.05.87-.2,1.16-.3.17-.06.3-.11.4-.12.11-.01.18.11.22.47l.5,4.61c.07.67.2.79.95.71.08,0,.14.07.15.15Z"/>
					<path d="M225.67,114.35c.31-.54.75-1.31,1.44-1.38.56-.06.71.34.73.51.06.51-.25.62-.4.64-.1.01-.18-.03-.27-.09-.2-.11-.38-.16-.54-.14-.54.06-1.11.95-1.03,1.64l.33,2.99c.08.69.66.71.99.68.09-.01.14.05.15.12,0,.08-.03.17-.11.18l-2.68.29c-.08,0-.13-.07-.14-.15,0-.07.02-.14.09-.15.49-.05.89-.17.82-.88l-.38-3.51c-.09-.81-.17-1.03-.97-.94-.08,0-.14-.07-.15-.15,0-.06.02-.13.11-.14.5-.05.86-.3,1.13-.49.16-.11.29-.2.39-.21.11-.01.18.11.22.47l.08.76c.01.1.02.14.06.13.03,0,.08-.08.14-.2Z"/>
					<path d="M237.69,114.82c.19,1.73-.48,3.68-2.29,3.88-.39.04-.78-.07-1.09-.16-.09-.03-.16-.04-.2-.04-.08,0-.1.08-.08.26l.18,1.63.07.63c.08.69.66.72.99.68.09-.01.14.05.15.12,0,.08-.04.17-.11.18l-2.69.29c-.08,0-.13-.07-.14-.15,0-.07.02-.14.09-.15.48-.05.89-.17.81-.88l-.07-.63-.68-6.26c-.09-.81-.17-1.03-.97-.94-.08,0-.14-.07-.15-.14,0-.06.02-.13.11-.14.5-.05.86-.3,1.14-.49.16-.11.29-.2.39-.21.11-.01.18.11.22.47l.03.28c.01.11.05.14.1.13.07,0,.2-.12.36-.27.34-.31.86-.78,1.52-.85,1.31-.14,2.14,1.21,2.3,2.74ZM236.82,115.3c-.14-1.31-.87-2.52-2.15-2.38-.54.06-1.15.53-1.14,1.37l.32,2.91c.11,1.04,1.09,1.15,1.43,1.12,1.19-.13,1.7-1.63,1.55-3.02Z"/>
					<path d="M244.05,116.59c-.08.41-.51,1.22-1.17,1.29-.57.06-.77-.19-.82-.64-.02-.22-.03-.23-.14-.1-.63.68-1.29.99-1.81,1.05-.83.09-1.43-.51-1.51-1.27-.13-1.21,1.87-2.11,2.7-2.59.39-.23.41-.34.38-.59l-.04-.36c-.06-.54-.47-1.58-1.43-1.48-.6.06-.68.56-.71,1.03-.03.46-.2.69-.51.73-.4.04-.55-.42-.45-.69.27-.7,1.11-1.37,2.12-1.48.88-.1,1.73.31,1.88,1.74l.32,2.94c.08.7.19.9.47.87.19-.02.41-.27.49-.49.03-.07.07-.13.14-.12.06,0,.1.07.08.16ZM241.93,115.95l-.14-1.25c-.01-.1-.04-.17-.25-.08-.56.26-2,.97-1.89,1.99.08.71.56.95,1.01.9.75-.08,1.35-.79,1.26-1.56Z"/>
					<path d="M247.15,117.12c0,.08-.03.17-.11.18l-2.68.29c-.08,0-.13-.07-.14-.15,0-.07.02-.14.09-.15.49-.05.89-.17.82-.88l-.74-6.75c-.09-.81-.17-1.03-.98-.94-.08,0-.14-.07-.15-.15,0-.07.02-.13.1-.14.5-.05.86-.35,1.12-.57.16-.13.29-.24.39-.25.11-.01.19.1.23.47l.9,8.23c.08.69.66.71.99.68.09,0,.14.05.15.12Z"/>
					<path d="M252.17,113.96c.19,1.75-.94,3.04-2.1,3.17-1.71.19-2.61-1.2-2.78-2.75-.19-1.73.62-3.68,2.1-3.84,1.56-.17,2.23,1.23,2.3,1.96.06.52-.05.55-1.24.67l-.28.03-2,.22c-.21.02-.21.12-.19.24.2,1.85,1.39,2.7,2.41,2.58.79-.09,1.36-.78,1.49-2.25,0-.07.1-.1.15-.11.06-.02.12.02.14.08ZM247.99,112.88c0,.08.06.14.24.12l2.1-.23c.3-.03.37-.14.33-.46-.06-.52-.62-1.44-1.44-1.35-.77.08-1.31,1.21-1.24,1.91Z"/>
					<path d="M254.32,110.5c-.17.02-.26.07-.23.36l.41,3.76c.09.86.33,1.27.85,1.22.44-.05.65-.64.75-.98.01-.04.05-.08.1-.08.08,0,.16.06.13.15-.06.46-.39,1.55-1.19,1.63-.76.08-1.37-.31-1.49-1.42l-.45-4.17c-.04-.33-.13-.33-.49-.29l-.4.04c-.19.02-.25-.05-.26-.15-.01-.1.02-.19.23-.21,1.42-.16,1.29-1.27,1.22-1.89-.03-.29.05-.32.16-.33.08,0,.12.08.14.26l.12,1.15c.04.37.12.62.47.58l1.25-.14c.23-.02.24.1.25.17,0,.08-.07.17-.3.2l-1.29.14Z"/>
					<path d="M257.88,110.11c-.17.02-.26.07-.23.36l.41,3.76c.09.86.33,1.27.85,1.22.44-.05.65-.64.75-.98.01-.04.05-.08.1-.08.08,0,.16.06.13.15-.06.46-.39,1.55-1.19,1.63-.76.08-1.36-.31-1.49-1.42l-.45-4.17c-.04-.33-.13-.33-.49-.29l-.4.04c-.19.02-.25-.05-.26-.15-.01-.1.02-.19.23-.21,1.42-.16,1.29-1.27,1.22-1.89-.03-.29.05-.32.16-.33.08,0,.12.08.14.26l.12,1.15c.04.37.12.62.47.58l1.25-.14c.23-.02.24.1.25.17,0,.08-.07.17-.3.2l-1.29.14Z"/>
					<path d="M265.25,112.53c.19,1.75-.94,3.04-2.1,3.17-1.71.19-2.61-1.2-2.78-2.75-.19-1.73.62-3.68,2.1-3.84,1.56-.17,2.23,1.23,2.31,1.96.06.52-.05.55-1.24.67l-.28.03-2,.22c-.21.02-.21.12-.19.24.2,1.85,1.38,2.7,2.4,2.58.79-.09,1.36-.78,1.49-2.25,0-.07.1-.1.15-.11.06-.02.12.02.14.08ZM261.06,111.45c0,.08.06.14.25.12l2.1-.23c.3-.03.37-.14.33-.46-.06-.52-.62-1.44-1.44-1.35-.77.08-1.31,1.21-1.24,1.91Z"/>
					<path d="M142.54,138.09c-.09-.81.56-3.14,1.89-3.28.38-.04.7.06.75.45.04.32-.13.44-.36.46-.18.02-.39-.02-.58-.05-.14-.02-.26-.04-.34-.03-.51.06-.68.5-.52,2.03l.06.56c.01.11.02.19.21.17l1.02-.11c.19-.02.24.04.25.13.02.18-.08.21-.21.23l-1.02.11c-.18.02-.18.13-.17.23l.51,4.65c.08.69.66.71.99.68.09-.01.14.05.15.12,0,.08-.04.17-.11.18l-2.69.29c-.08,0-.13-.07-.14-.15,0-.07.02-.14.09-.15.49-.05.89-.17.81-.87l-.51-4.65c-.01-.11-.03-.21-.22-.19l-.35.04c-.17.02-.28.03-.3-.2-.01-.1.05-.14.17-.15l.44-.05c.18-.02.18-.1.17-.21l-.03-.24Z"/>
					<path d="M151.02,140.62c.19,1.7-.6,3.56-2.36,3.75-1.89.21-2.94-1.26-3.12-2.87-.18-1.69.6-3.52,2.37-3.71,1.9-.21,2.93,1.24,3.1,2.83ZM150.07,141.26c-.17-1.59-1.06-3.25-2.28-3.11-1.09.12-1.45,1.42-1.3,2.77.17,1.58,1.04,3.21,2.27,3.08,1.1-.12,1.46-1.4,1.32-2.73Z"/>
					<path d="M153.43,138.43c.31-.54.75-1.31,1.45-1.38.56-.06.71.34.73.51.06.51-.25.62-.4.64-.1.01-.18-.03-.27-.09-.2-.12-.38-.16-.54-.14-.54.06-1.11.96-1.03,1.64l.33,2.99c.08.69.66.71.99.68.09,0,.14.05.15.12,0,.08-.03.17-.11.18l-2.68.29c-.08,0-.13-.07-.14-.15,0-.07.02-.14.09-.15.49-.05.89-.17.82-.88l-.38-3.51c-.09-.81-.16-1.03-.97-.94-.08,0-.14-.07-.15-.14,0-.06.02-.13.11-.14.5-.05.86-.3,1.13-.49.16-.11.29-.2.39-.21.11-.01.18.11.22.47l.08.76c0,.1.02.14.06.13.03,0,.08-.08.14-.2Z"/>
					<path d="M162.77,142.07c1.3-.14,2.85-.24,3.01,1.24.14,1.28-1.06,3.05-3.27,3.29-1.07.12-2.43-.25-2.57-1.49-.09-.85.87-1.58,1.5-1.91.07-.04.1-.07.09-.09,0-.04-.11-.05-.23-.06-.67-.03-1.14-.32-1.2-.88-.03-.31.34-.89,1.04-1.24.1-.05.16-.08.15-.11,0-.02-.04-.04-.12-.07-.84-.29-1.3-1.06-1.39-1.89-.13-1.16.68-2.46,1.94-2.59.39-.04.79,0,1.16.15.09.04.16.05.22.05.06,0,.1-.04.13-.1.2-.39.46-.78.93-.83.32-.03.6.08.64.42.04.32-.17.43-.4.46-.18.02-.35-.01-.48-.04-.06,0-.11-.02-.14-.02-.03,0-.05,0-.07,0-.16.02-.3.12-.28.29,0,.08.05.16.14.26.33.37.53.84.58,1.33.12,1.14-.53,2.47-1.82,2.61-.95.1-1.39.64-1.37.82.06.56.88.54,1.82.44ZM162.3,140.51c.88-.1,1.11-.92,1.01-1.83-.12-1.09-.65-2.23-1.64-2.12-.87.09-1.14.95-1.04,1.85.12,1.13.66,2.21,1.67,2.1ZM165.24,143.78c-.11-.96-1.19-.88-2.25-.81l-.51.04c-.94.07-1.62,1.16-1.55,1.82.1.91,1.01,1.31,1.96,1.2,1.36-.15,2.45-1.38,2.35-2.25Z"/>
					<path d="M170.23,139.09c.19,1.75-.94,3.04-2.1,3.17-1.71.19-2.61-1.2-2.78-2.75-.19-1.73.62-3.68,2.1-3.84,1.56-.17,2.22,1.23,2.3,1.96.06.52-.05.54-1.24.67l-.28.03-2,.22c-.21.02-.21.12-.19.24.2,1.86,1.39,2.7,2.41,2.59.79-.09,1.36-.78,1.49-2.25,0-.07.1-.1.15-.11.06-.02.12.02.14.08ZM166.04,138.01c0,.08.06.14.24.12l2.1-.23c.3-.03.37-.14.33-.46-.06-.52-.62-1.44-1.44-1.35-.77.08-1.31,1.21-1.24,1.91Z"/>
					<path d="M177.39,140.93c0,.08-.03.17-.11.18l-2.68.29c-.08,0-.13-.07-.14-.15,0-.07.02-.14.09-.15.49-.05.89-.17.82-.88l-.23-2.12c-.19-1.78-.5-2.48-1.25-2.4-.18.02-1.7.42-1.46,2.6l.24,2.22c.08.69.66.71.99.68.09,0,.14.05.15.12,0,.08-.03.17-.11.18l-2.68.29c-.08,0-.13-.07-.14-.15,0-.07.02-.14.09-.15.49-.05.89-.17.82-.88l-.38-3.51c-.09-.81-.17-1.03-.98-.94-.08,0-.14-.07-.15-.15,0-.06.02-.13.1-.14.5-.05.86-.3,1.13-.49.16-.11.29-.19.39-.21.11-.01.19.1.23.47l.08.71c0,.08.01.13.07.12.05,0,.14-.14.29-.32.36-.44.98-1.17,1.63-1.24,1.41-.15,1.65,1.55,1.77,2.67l.28,2.53c.08.69.66.71.99.68.09,0,.14.05.15.12Z"/>
					<path d="M182.4,137.77c.19,1.75-.94,3.04-2.1,3.17-1.71.19-2.61-1.2-2.78-2.75-.19-1.73.62-3.68,2.1-3.84,1.56-.17,2.22,1.23,2.3,1.96.06.52-.05.54-1.24.67l-.28.03-2,.22c-.21.02-.21.12-.19.24.2,1.86,1.39,2.7,2.41,2.59.79-.09,1.36-.78,1.49-2.25,0-.07.1-.1.15-.11.06-.02.12.02.14.08ZM178.21,136.69c0,.08.06.14.25.12l2.1-.23c.3-.03.37-.14.33-.46-.06-.52-.62-1.44-1.44-1.35-.77.08-1.31,1.21-1.24,1.91Z"/>
					<path d="M184.59,135.04c.31-.54.75-1.31,1.45-1.38.56-.06.71.34.73.51.06.51-.25.62-.4.64-.1.01-.18-.03-.27-.09-.2-.11-.38-.16-.54-.14-.54.06-1.1.95-1.03,1.64l.33,2.99c.08.69.66.71.99.68.09-.01.14.05.15.12,0,.08-.03.17-.11.18l-2.68.29c-.08,0-.13-.07-.14-.15,0-.07.02-.14.09-.15.49-.05.89-.17.82-.88l-.38-3.51c-.09-.81-.16-1.03-.97-.94-.08,0-.14-.07-.15-.14,0-.06.02-.13.1-.14.5-.05.86-.3,1.13-.49.16-.11.29-.2.39-.21.11-.01.18.11.22.47l.08.76c0,.1.02.14.06.13.03,0,.08-.08.14-.2Z"/>
					<path d="M192.9,138.37c-.08.41-.51,1.22-1.17,1.29-.57.06-.77-.19-.82-.64-.02-.22-.02-.23-.14-.11-.63.68-1.29.99-1.81,1.05-.83.09-1.43-.51-1.51-1.27-.13-1.21,1.87-2.11,2.7-2.59.39-.23.41-.34.38-.59l-.04-.36c-.06-.54-.47-1.59-1.43-1.48-.6.06-.68.56-.71,1.03-.03.46-.2.69-.51.73-.4.04-.55-.42-.45-.69.27-.7,1.11-1.37,2.12-1.48.88-.1,1.73.31,1.88,1.74l.32,2.94c.08.7.19.9.47.87.19-.02.41-.27.49-.49.03-.07.07-.13.14-.12.06,0,.1.07.08.16ZM190.77,137.73l-.14-1.25c-.01-.1-.04-.17-.25-.08-.56.26-2,.97-1.89,1.99.08.71.56.95,1.01.9.75-.08,1.35-.79,1.26-1.56Z"/>
					<path d="M196,138.9c0,.08-.03.17-.11.18l-2.68.29c-.08,0-.13-.07-.14-.15,0-.07.02-.14.09-.15.49-.05.89-.17.82-.88l-.74-6.75c-.09-.81-.17-1.03-.98-.94-.08,0-.14-.07-.15-.15,0-.07.02-.13.1-.14.5-.05.86-.35,1.13-.58.16-.13.28-.24.39-.25.11-.01.19.1.23.47l.9,8.23c.08.69.66.71.99.68.09,0,.14.05.15.12Z"/>
					<path d="M208.31,137.42c.17.01.34-.01.36.12.02.13-.07.15-.2.17l-1.02.11c-.42.04-.71-.03-.97-.19l-1.05-.82c-.11-.07-.17-.1-.21-.09-.04,0-.07.04-.1.09-.78,1.05-1.7,1.58-2.52,1.67-1.34.15-2.6-.78-2.75-2.14-.1-.88.28-1.88,1.5-2.76.19-.14.14-.27.03-.38-.76-.81-1.07-1.53-1.13-2.14-.14-1.31.8-2.15,1.91-2.27,1.1-.12,2.06.43,2.19,1.59.12,1.08-.63,2.04-1.45,2.57-.18.12-.22.24-.04.42.72.73,1.48,1.41,2.28,2.03.09.07.16.09.22.09.09,0,.14-.1.18-.2.09-.28.27-.88.22-1.38-.05-.49-.33-.89-1.13-.81-.12.01-.18-.05-.19-.12,0-.08.05-.16.16-.17l2.46-.27c.12-.01.21.03.23.15,0,.07-.02.13-.19.15-.55.06-.8.47-1.03,1.67-.07.37-.13.77-.28,1.12-.05.12-.1.23.11.37.31.21,1.2.92,1.57,1.13.34.19.7.28.85.29ZM204.72,136.23c-.96-.77-1.88-1.59-2.75-2.45-.06-.06-.13-.1-.21-.09-.05,0-.1.03-.15.08-.67.6-.89,1.35-.82,2.03.12,1.12,1.01,1.97,2.19,1.84.57-.06,1.2-.36,1.78-.97.12-.12.17-.27-.04-.44ZM202.25,132.71c.08.1.15.15.22.14.05,0,.11-.04.18-.1.65-.58.89-1.54.81-2.25-.07-.68-.5-1.51-1.31-1.42-.57.06-1.17.52-1.07,1.41.11.98.91,1.92,1.17,2.21Z"/>
					<path d="M218.82,136.21c0,.07-.02.13-.11.14-.5.05-.87.25-1.15.4-.16.09-.29.15-.4.17-.11.01-.18-.05-.21-.33l-.04-.37c-.02-.1-.04-.14-.08-.13-.03,0-.11.07-.22.17-.31.28-.89.81-1.54.88-1.47.16-2.31-1.21-2.47-2.7-.19-1.75.74-3.73,2.37-3.9.37-.04.66.06.89.14.16.05.29.1.4.09.04,0,.05-.03.06-.08l-.19-1.73c-.09-.81-.17-1.03-.97-.94-.08,0-.14-.07-.15-.14,0-.06.02-.13.11-.14.5-.05.86-.35,1.13-.58.16-.13.28-.23.39-.25.11-.01.19.1.22.47l.85,7.81c.09.81.16.96.97.88.08,0,.14.07.15.14ZM216.79,135l-.28-2.54c-.11-1-.94-1.65-1.62-1.57-1.09.12-1.58,1.53-1.43,2.87.15,1.34.86,2.69,2.17,2.54.48-.05,1.25-.47,1.16-1.3Z"/>
					<path d="M224.57,134.92c-.08.41-.51,1.22-1.17,1.29-.57.06-.77-.19-.82-.64-.02-.22-.02-.23-.14-.11-.63.68-1.29.99-1.82,1.05-.83.09-1.43-.51-1.51-1.27-.13-1.21,1.87-2.11,2.7-2.59.39-.23.41-.34.38-.59l-.04-.36c-.06-.54-.47-1.58-1.43-1.48-.6.07-.68.56-.71,1.03-.03.46-.2.69-.51.73-.4.04-.55-.42-.45-.69.27-.7,1.11-1.37,2.12-1.48.88-.1,1.73.31,1.88,1.74l.32,2.94c.08.7.19.9.47.87.19-.02.41-.27.49-.49.03-.07.07-.13.14-.12.06,0,.1.07.08.16ZM222.44,134.28l-.14-1.25c-.01-.1-.04-.17-.25-.08-.56.26-2,.97-1.89,1.99.08.71.56.95,1.01.9.75-.08,1.35-.79,1.26-1.56Z"/>
					<path d="M226.15,129.77c-.17.02-.26.07-.23.36l.41,3.76c.09.86.33,1.27.85,1.22.44-.05.65-.63.75-.98.01-.04.05-.08.1-.08.08,0,.16.06.13.15-.07.47-.39,1.55-1.19,1.63-.76.08-1.37-.31-1.49-1.42l-.45-4.17c-.04-.33-.13-.33-.49-.29l-.4.04c-.19.02-.25-.05-.26-.15-.01-.1.02-.19.23-.21,1.42-.16,1.29-1.26,1.22-1.89-.03-.29.05-.32.16-.33.08,0,.12.08.14.26l.12,1.15c.04.37.12.61.47.58l1.25-.14c.23-.02.24.1.25.17,0,.08-.07.17-.29.2l-1.29.14Z"/>
					<path d="M234.2,133.87c-.08.41-.51,1.22-1.17,1.29-.57.06-.77-.19-.82-.64-.02-.22-.02-.23-.14-.11-.63.68-1.29.99-1.81,1.05-.83.09-1.43-.51-1.51-1.27-.13-1.21,1.87-2.11,2.7-2.59.39-.23.41-.34.38-.6l-.04-.36c-.06-.54-.47-1.58-1.43-1.48-.6.07-.68.56-.71,1.03-.03.46-.2.69-.51.73-.4.04-.55-.42-.45-.69.27-.7,1.11-1.37,2.12-1.48.88-.1,1.73.31,1.88,1.74l.32,2.94c.08.7.19.9.47.87.19-.02.41-.27.49-.49.03-.07.07-.13.14-.12.06,0,.1.07.08.16ZM232.08,133.23l-.14-1.25c-.01-.1-.04-.17-.25-.08-.56.26-2,.97-1.89,1.99.08.71.56.95,1.01.9.75-.08,1.35-.79,1.26-1.56Z"/>
					<path d="M245.39,124.41c0,.07-.04.14-.19.15-.94.1-.91.52-.79,1.65l.39,3.54c.32,2.92-.97,4.19-2.43,4.35-2.22.24-3.42-1.02-3.67-3.31l-.51-4.67c-.08-.69-.72-.71-1.09-.67-.1.01-.15-.05-.16-.12,0-.08.04-.17.13-.18l2.98-.32c.08,0,.14.07.15.15,0,.07-.02.14-.11.15-.54.06-.99.18-.91.89l.44,4.03c.29,2.62,1.36,3.55,2.96,3.38,1.1-.12,2.03-1.21,1.77-3.59l-.38-3.52c-.13-1.22-.24-1.59-1.18-1.48-.11.01-.17-.05-.18-.12,0-.08.05-.17.17-.18l2.4-.26c.12-.01.21.06.22.14Z"/>
					<path d="M249.8,133.03c0,.08-.04.17-.13.18l-2.98.32c-.08,0-.14-.07-.15-.15,0-.07.02-.14.11-.15.54-.06.98-.18.91-.89l-.78-7.18c-.08-.69-.72-.71-1.09-.67-.1.01-.15-.05-.16-.11,0-.08.04-.17.13-.18l2.98-.32c.08,0,.14.07.15.15,0,.07-.02.14-.11.15-.54.06-.99.18-.91.89l.78,7.18c.08.69.72.71,1.09.67.1-.01.15.05.16.12Z"/>
				</g>
			</g>
			<g data-name="label">
				<path d="M206.12,107.76c-1.36.34-2.71.46-4.19.6-1.65.17-3.3.24-4.96.26-1.99.05-4.08.16-6.09.17-2.03.04-4.03.03-6.04.12-3.18.18-6.32.38-9.44-.11-1.83-.29-3.6-.98-5-2.1-1.15-.97-2.14-2.16-2.63-3.51-.66-1.85-.5-3.97.5-5.72.69-1.19,1.75-2.21,2.93-3.03,1.35-.91,3.04-1.49,4.68-1.86,1.62-.34,3.25-.46,4.88-.66,2.3-.32,4.59-.35,6.92-.42.87-.03,1.74-.05,2.61-.04,3.22,0,6.42-.11,9.66-.21,2.4-.07,4.93.13,7.18.86,3.97,1.32,7.39,3.93,7.04,7.99-.13,1.48-.6,2.95-1.6,4.14-.61.76-1.37,1.53-2.23,2.05-1.23.77-2.71,1.14-4.2,1.47h0Z"/>
				<g>
					<path d="M173.74,97.58l3.09-.17,1.1,2.77.81-2.86,3.09-.16.33,6.38-2.13.11-.23-4.35-1.21,4.43-1.29.07-1.6-4.28.23,4.35-1.86.1-.33-6.38Z"/>
					<path d="M184.71,97.01l2.32-.12,2.64,6.26-2.5.13-.34-.89-1.82.09-.25.92-2,.1,1.95-6.5ZM186.38,101.15l-.57-1.53h-.04s-.42,1.58-.42,1.58l1.03-.05Z"/>
					<path d="M189.62,100.96l1.64-.08c.03.35.21.59.65.57.38-.02.55-.28.53-.67l-.21-4.15,2.13-.11.22,4.23c.07,1.33-.96,2.32-2.42,2.4-1.36.07-2.4-.65-2.54-2.19Z"/>
					<path d="M195.38,99.67c-.11-2.19,1.4-3.43,3.07-3.51,1.7-.09,3.33.98,3.44,3.18.11,2.18-1.4,3.39-3.1,3.48-1.67.09-3.3-.96-3.42-3.14ZM199.66,99.65l-.02-.42c-.04-.79-.48-1.15-1.07-1.12-.6.03-1,.43-.96,1.22l.02.42c.04.81.47,1.15,1.08,1.12.58-.03.99-.41.95-1.22Z"/>
					<path d="M202.58,96.08l3.68-.19c1.47-.08,2.12.75,2.17,1.6.04.78-.35,1.58-1.19,1.92l1.84,2.74-2.5.13-1.39-2.33h-.27s.12,2.41.12,2.41l-2.12.11-.33-6.38ZM206.37,98.32c-.01-.2-.17-.39-.49-.37l-1.07.06.04.79,1.07-.06c.31-.02.46-.22.45-.42Z"/>
				</g>
			</g>
		</g>
		<g id="line">
			<circle cx="16" cy="250.82" r="16"/>
			<path d="M327.42,252.82H52c-1.1,0-2-.9-2-2s.9-2,2-2h275.42c1.1,0,2,.9,2,2s-.9,2-2,2Z"/>
		</g>
	</g>
</svg>